<?xml version="1.0" encoding="UTF-8"?>
<svg version="1.1" xmlns="http://www.w3.org/2000/svg" width="512" height="512">
<path d="M0 0 C1.23056122 -0.00852997 2.46112244 -0.01705994 3.72897339 -0.02584839 C5.09011854 -0.02514935 6.45126358 -0.02422629 7.81240845 -0.02310181 C9.24839629 -0.02908763 10.68438092 -0.03589331 12.12036133 -0.04345703 C16.0217837 -0.06113134 19.92311832 -0.06581336 23.82457685 -0.0670886 C26.26700848 -0.0685114 28.70941791 -0.07278372 31.15184402 -0.07808304 C39.68780172 -0.09659694 48.22369697 -0.10475306 56.75967407 -0.10317993 C64.68939306 -0.10198224 72.61883821 -0.12300759 80.54848802 -0.15466726 C87.37337237 -0.18093486 94.19816798 -0.19154267 101.0231024 -0.19026911 C105.09135976 -0.189762 109.15937445 -0.19530332 113.22758102 -0.21662521 C117.06413445 -0.23618183 120.90021842 -0.23601508 124.7367897 -0.22159195 C126.13384447 -0.21952322 127.53092994 -0.22408707 128.92793274 -0.23631287 C147.94729878 -0.39177732 164.89720246 5.91244768 179.2406311 18.53695679 C195.00240127 34.16458423 201.29259406 52.66844959 201.49299622 74.35778809 C201.50641143 77.66114174 201.50371739 80.96406077 201.49453735 84.26742554 C201.4824754 88.66369149 201.49615678 93.05876456 201.52578735 97.45492554 C201.51446777 98.45185425 201.50314819 99.44878296 201.4914856 100.47592163 C201.53418395 106.34252413 202.19266859 109.54750476 205.99453735 114.26742554 C208.5634995 121.55706017 208.36173581 128.91490612 208.36953735 136.57992554 C208.39402954 137.83482788 208.41852173 139.08973022 208.4437561 140.38265991 C208.47060542 148.96996584 207.95611046 157.7066569 202.08340454 164.46762085 C194.4059266 171.73500238 188.1310891 172.59888287 177.8109436 172.37289429 C176.88152954 172.3380896 175.95211548 172.30328491 174.99453735 172.26742554 C175.03836548 173.26387085 175.0821936 174.26031616 175.12734985 175.28695679 C174.98800304 179.46326275 174.15922361 183.02131018 172.86953735 186.95492554 C172.5295874 188.0025708 172.5295874 188.0025708 172.18276978 189.07138062 C167.6194819 202.67717139 160.43074403 215.58498734 148.80703735 224.32992554 C146.63540011 225.97089982 146.63540011 225.97089982 144.99453735 228.26742554 C144.74934018 231.32193582 144.74934018 231.32193582 145.2562561 234.51351929 C145.38347046 235.5917395 145.51068481 236.66995972 145.64175415 237.78085327 C145.75817261 238.60142212 145.87459106 239.42199097 145.99453735 240.26742554 C146.78287964 240.59315552 147.57122192 240.9188855 148.38345337 241.25448608 C162.18964242 246.9971315 175.85240615 252.79987973 188.86953735 260.20492554 C189.78162964 260.72337036 190.69372192 261.24181519 191.63345337 261.77597046 C196.37496095 264.54225749 200.77863366 267.52926131 205.12246704 270.88095093 C208.00080673 273.01267903 211.07358102 274.74744872 214.18203735 276.51742554 C233.3309485 287.75001364 249.61192197 302.58246725 260.87734985 321.83383179 C263.68007672 325.05541636 265.85217243 325.38991521 269.99453735 326.26742554 C271.30045036 326.60546346 272.60383174 326.95341135 273.9046936 327.31039429 C274.91366699 327.5844812 274.91366699 327.5844812 275.94302368 327.86410522 C301.45899859 334.99525885 321.98866129 351.24220792 334.99453735 374.26742554 C346.13300678 395.58415152 349.25650002 422.21302552 342.3109436 445.42367554 C341.88375602 446.70884463 341.44475402 447.99014178 340.99453735 449.26742554 C340.75847778 449.93773804 340.52241821 450.60805054 340.27920532 451.29867554 C336.42756851 461.78823962 330.85454868 470.50313012 323.99453735 479.26742554 C323.47117798 479.96351929 322.9478186 480.65961304 322.40859985 481.37680054 C309.83216846 497.22455801 287.45045221 509.43730417 267.33096313 512.05209351 C239.07098707 514.65661795 214.59152736 509.69235243 191.99453735 492.26742554 C191.14994839 491.40973163 190.30535942 490.55203772 189.43517685 489.66835308 C185.33536192 486.2713555 181.20663982 486.57490097 176.07711792 486.64164734 C175.08266025 486.63470279 174.08820259 486.62775825 173.06360984 486.62060326 C169.73323006 486.60334804 166.40400022 486.62164706 163.07363892 486.63973999 C160.68506309 486.63456167 158.29649119 486.62716207 155.90792847 486.6177063 C150.09395656 486.60010272 144.28031877 486.60517528 138.46634606 486.61975423 C131.68964229 486.63529398 124.91310141 486.62090098 118.13641235 486.60423329 C106.0386476 486.57509203 93.94096535 486.56672855 81.84317017 486.57284546 C70.11790017 486.5787027 58.39265795 486.57978689 46.66738892 486.57089233 C45.94579237 486.57034976 45.22419582 486.56980719 44.48073271 486.56924818 C36.59502873 486.56307581 28.70933174 486.55432996 20.8236351 486.54189587 C19.78252294 486.54025714 19.78252294 486.54025714 18.72037821 486.5385853 C15.94480957 486.53416505 13.16924111 486.52969076 10.39367315 486.52485969 C1.62342065 486.50962263 -7.1467076 486.50623093 -15.91696882 486.51541674 C-20.95205416 486.51904705 -25.987112 486.51473501 -31.02219391 486.50857544 C-33.3529826 486.50749187 -35.68377587 486.50984069 -38.01455688 486.51592064 C-41.20315355 486.5238371 -44.39151543 486.51946858 -47.58010864 486.51225281 C-48.49627889 486.51759814 -49.41244915 486.52294347 -50.35638213 486.52845079 C-62.77865126 486.46560508 -72.90535433 483.75188129 -82.1812439 475.25961304 C-90.60396366 466.06135377 -91.36877149 455.56740615 -91.38046265 443.64242554 C-91.40477024 442.30648011 -91.42950603 440.9705424 -91.4546814 439.63461304 C-91.45854858 438.36617554 -91.46241577 437.09773804 -91.46640015 435.79086304 C-91.47461792 434.63505737 -91.48283569 433.47925171 -91.49130249 432.28842163 C-90.90229788 428.62593769 -89.9591614 427.45191133 -87.00546265 425.26742554 C-83.25196803 424.79823871 -80.96697811 424.73606173 -77.63046265 426.57992554 C-74.69225815 429.6311379 -74.88465864 432.7265454 -74.86483765 436.74789429 C-74.83583374 438.37114624 -74.83583374 438.37114624 -74.8062439 440.02719116 C-74.77268168 442.2926409 -74.75418329 444.55836935 -74.7515564 446.82406616 C-74.59486329 453.78866227 -73.84662979 459.0078653 -69.00546265 464.26742554 C-64.36751715 467.82703727 -59.62774812 469.39517461 -53.84194946 469.38768005 C-53.02027786 469.38905472 -52.19860626 469.39042938 -51.35203552 469.3918457 C-50.45939499 469.38825043 -49.56675446 469.38465515 -48.64706421 469.38095093 C-47.70038376 469.38109695 -46.75370331 469.38124298 -45.77833557 469.38139343 C-42.65089625 469.38069706 -39.52351656 469.37291752 -36.39608765 469.36508179 C-34.22704094 469.36321663 -32.05799381 469.36179319 -29.88894653 469.36079407 C-24.18104895 469.3569766 -18.47317683 469.34715285 -12.76528931 469.33609009 C-6.94040267 469.32585944 -1.11551193 469.3212929 4.7093811 469.31625366 C16.1377777 469.30552992 27.56615541 469.28846271 38.99453735 469.26742554 C37.23589677 467.02566145 35.47679867 464.78425895 33.71743774 462.5430603 C33.22267189 461.91227821 32.72790604 461.28149612 32.21814728 460.63159943 C28.67180001 456.11502768 25.07703111 451.64230924 21.43203735 447.20492554 C16.70045333 441.41503456 12.10982302 435.54224292 7.5765686 429.59555054 C4.68805056 425.84036438 1.6841566 422.18193408 -1.31796265 418.51742554 C-5.96513335 412.83141049 -10.52893684 407.08889922 -15.00546265 401.26742554 C-15.53309204 400.58583374 -16.06072144 399.90424194 -16.6043396 399.20199585 C-26.92057726 385.70226396 -26.92057726 385.70226396 -26.5796814 376.43930054 C-25.72872334 371.73877032 -23.70124458 367.96571665 -21.31796265 363.86117554 C-19.70445697 361.15706799 -19.70445697 361.15706799 -20.00546265 357.26742554 C-20.59714233 357.02508179 -21.18882202 356.78273804 -21.7984314 356.53305054 C-29.76923838 353.15228412 -33.89677046 350.34922973 -37.40390015 342.29086304 C-39.25783235 332.97304792 -35.83087 322.79360757 -33.94296265 313.64242554 C-33.65800542 312.24277791 -33.37349695 310.84303883 -33.08944702 309.44320679 C-32.39994909 306.05021125 -31.70441082 302.65848858 -31.00546265 299.26742554 C-53.3069162 317.70329381 -70.03162659 340.21999585 -73.77352905 369.6980896 C-74.38318901 376.45183842 -74.47480595 383.26206334 -74.53988647 390.04013062 C-74.56925293 391.72078613 -74.56925293 391.72078613 -74.59921265 393.43539429 C-74.60630249 394.43852661 -74.61339233 395.44165894 -74.62069702 396.47518921 C-75.16317411 400.41193444 -76.63554023 403.22817405 -79.81796265 405.64242554 C-82.87539615 406.51597797 -84.96116226 406.10946607 -88.00546265 405.26742554 C-89.66195679 404.12850952 -89.66195679 404.12850952 -91.00546265 402.26742554 C-91.40951538 399.30673218 -91.40951538 399.30673218 -91.4390564 395.67758179 C-91.44957031 394.69968185 -91.44957031 394.69968185 -91.46029663 393.70202637 C-91.47439127 391.57747975 -91.46174349 389.4544229 -91.44296265 387.32992554 C-91.43958893 386.6056839 -91.43621521 385.88144226 -91.43273926 385.13525391 C-91.2327207 355.5877275 -82.55723399 328.76484982 -63.00546265 306.26742554 C-62.26940796 305.38699585 -61.53335327 304.50656616 -60.7749939 303.59945679 C-50.74281046 291.99616469 -38.38633202 283.60117755 -25.60360718 275.31185913 C-23.59011114 273.99598133 -21.61217257 272.63056705 -19.63046265 271.26742554 C-12.62713934 266.60731943 -5.30471135 262.44176694 1.99453735 258.26742554 C2.91879517 257.73713745 2.91879517 257.73713745 3.86172485 257.19613647 C14.84300408 250.95510945 26.37589019 246.06254862 38.00772095 241.17196655 C39.95178115 240.4270351 39.95178115 240.4270351 40.99453735 239.26742554 C41.76921542 235.11784561 41.85690688 231.40679927 40.99453735 227.26742554 C38.84012857 224.59419995 36.48540043 222.71096593 33.79141235 220.58773804 C20.28973842 209.38662866 12.88950872 190.32216785 10.99453735 173.26742554 C10.16051392 173.24164429 9.32649048 173.21586304 8.4671936 173.18930054 C-1.01434626 172.71142224 -8.18794547 171.6142823 -14.88046265 164.51742554 C-21.4314847 156.98533255 -21.51118074 148.51606662 -21.45150757 139.02352905 C-21.44302092 136.96903342 -21.47178506 134.91734931 -21.50350952 132.86312866 C-21.54556876 124.68624562 -20.63903821 117.67821457 -17.00546265 110.26742554 C-16.67546265 109.93742554 -16.34546265 109.60742554 -16.00546265 109.26742554 C-15.88325 107.3598866 -15.82564329 105.44815338 -15.79452515 103.53695679 C-14.97592539 66.1272014 -14.97592539 66.1272014 -4.19296265 54.27523804 C-2.70366457 52.2956571 -2.70366457 52.2956571 -3.6031189 49.91195679 C-5.19324643 46.91330402 -6.81544621 43.93345562 -8.44296265 40.95492554 C-13.55101159 31.10501025 -16.66419081 19.2568353 -14.00546265 8.26742554 C-10.48365349 1.58813231 -7.37538586 0.0231129 0 0 Z M0.99453735 15.26742554 C1.28583436 17.00404748 1.58407745 18.73950503 1.88516235 20.47445679 C2.05048462 21.44101196 2.21580688 22.40756714 2.38613892 23.40341187 C4.83059005 34.9105773 12.53020599 44.54617048 21.99453735 51.26742554 C28.49429403 54.57044654 35.07354633 57.38086845 42.43243408 57.40545654 C43.31538147 57.41090988 44.19832886 57.41636322 45.10803223 57.42198181 C46.54966232 57.4235453 46.54966232 57.4235453 48.02041626 57.42514038 C49.54801575 57.43276146 49.54801575 57.43276146 51.10647583 57.4405365 C53.31849941 57.45123591 55.53053378 57.45985778 57.74257278 57.46665573 C61.24901197 57.47845698 64.75532867 57.4979147 68.26171875 57.51977539 C78.23169856 57.58133926 88.20166647 57.63536522 98.17178345 57.66879272 C104.27138104 57.68979319 110.37075619 57.72514276 116.47022629 57.76955032 C118.78970081 57.78367088 121.10921469 57.79242381 123.42873001 57.79560471 C126.6834854 57.80053933 129.93765571 57.82376463 133.19229126 57.85092163 C134.61570328 57.84641243 134.61570328 57.84641243 136.06787109 57.84181213 C146.43103986 57.96956277 155.74541191 60.88681005 163.99453735 67.26742554 C172.576205 76.12331941 174.58450206 85.30700851 175.99453735 97.26742554 C178.96453735 97.59742554 181.93453735 97.92742554 184.99453735 98.26742554 C185.09451391 93.21784026 185.16652002 88.16884951 185.21426392 83.11849976 C185.23419735 81.40583237 185.2613544 79.69323139 185.29629517 77.98080444 C185.65688211 59.83479693 181.94376781 46.03037981 169.23672485 32.55258179 C168.49680298 31.79848022 167.7568811 31.04437866 166.99453735 30.26742554 C166.44024048 29.68863647 165.8859436 29.10984741 165.31484985 28.51351929 C152.23674096 16.05352997 133.99099016 15.10175555 117.01748657 15.15390015 C115.7578157 15.15375412 114.49814484 15.15360809 113.20030212 15.15345764 C109.77743512 15.15317304 106.35460382 15.15901486 102.93174505 15.1660316 C99.34298736 15.17232165 95.75422867 15.17287338 92.16546631 15.17405701 C85.38363379 15.17715376 78.60181756 15.18534464 71.81999218 15.1954065 C64.09318647 15.20661929 56.36637993 15.21209106 48.63956809 15.21710193 C32.75788177 15.22752879 16.87621167 15.24509589 0.99453735 15.26742554 Z M9.99453735 62.26742554 C9.03030709 63.65919185 8.07342133 65.05604783 7.11953735 66.45492554 C6.58586548 67.23223022 6.0521936 68.00953491 5.50234985 68.81039429 C1.23546391 75.76342864 0.83868078 82.69993541 0.93203735 90.64242554 C0.93654907 91.37848022 0.94106079 92.11453491 0.94570923 92.87289429 C0.95738594 94.67110712 0.97531724 96.46927751 0.99453735 98.26742554 C5.94453735 97.77242554 5.94453735 97.77242554 10.99453735 97.26742554 C11.35805298 95.36670288 11.35805298 95.36670288 11.72891235 93.42758179 C13.42027071 84.85599195 15.18199158 77.17492788 18.99453735 69.26742554 C18.32483225 66.20342688 18.32483225 66.20342688 16.1468811 65.09945679 C15.41598267 64.76301147 14.68508423 64.42656616 13.93203735 64.07992554 C13.19856079 63.73574585 12.46508423 63.39156616 11.7093811 63.03695679 C11.14348267 62.78301147 10.57758423 62.52906616 9.99453735 62.26742554 Z M34.99453735 72.26742554 C34.19470655 73.82781412 33.39947704 75.39056166 32.60612488 76.95425415 C32.16277581 77.82424671 31.71942675 78.69423927 31.26264286 79.59059525 C26.44646985 89.75700311 26.53508768 100.09057414 26.5609436 111.09555054 C26.55637036 112.81509606 26.55106143 114.53463978 26.5450592 116.25418091 C26.53616845 119.84477192 26.53850333 123.43514005 26.54849243 127.02572632 C26.55995319 131.5855861 26.5397945 136.14466806 26.51057529 140.70442581 C26.49206151 144.25306948 26.49253604 147.80153215 26.49821281 151.3502121 C26.49836431 153.02922402 26.49246518 154.70824959 26.47992134 156.38721466 C26.35233969 176.26511604 30.87400104 194.41525521 44.99453735 209.26742554 C59.65417824 222.82814282 76.66363446 230.93753277 96.8812561 230.54476929 C112.09390279 229.8213858 125.55075712 222.87653158 136.99453735 213.26742554 C138.51047485 212.15367554 138.51047485 212.15367554 140.05703735 211.01742554 C151.77146312 201.02284621 158.85117467 184.30757401 160.17630959 169.19429779 C160.47284707 163.67661243 160.46601279 158.15485489 160.46328735 152.63070679 C160.47040708 150.85720078 160.47810865 149.08369703 160.48635864 147.31019592 C160.49971525 143.61643033 160.50141039 139.92287825 160.49551392 136.22909546 C160.4896004 131.51847169 160.52031855 126.80887235 160.5606308 122.09844685 C160.58658342 118.44448926 160.58937887 114.79077677 160.58573914 111.13673973 C160.58742068 109.40054927 160.59696911 107.6643463 160.61488342 105.92824745 C160.74541245 92.36083659 160.74541245 92.36083659 154.99453735 80.26742554 C152.8330535 77.98255094 152.8330535 77.98255094 150.43203735 76.70492554 C149.31635376 76.02236694 149.31635376 76.02236694 148.1781311 75.32601929 C144.60214327 73.59240086 141.40300498 73.14167351 137.4513855 73.10920715 C136.09266579 73.09452393 136.09266579 73.09452393 134.70649719 73.07954407 C133.22727531 73.07091087 133.22727531 73.07091087 131.71817017 73.06210327 C130.15184593 73.04725388 130.15184593 73.04725388 128.55387878 73.03210449 C125.10182972 73.00051306 121.64976689 72.97574126 118.19766235 72.95101929 C115.8044092 72.93044774 113.41115966 72.90945121 111.01791382 72.88804626 C104.71822031 72.83284642 98.41849412 72.78342787 92.1187439 72.73519897 C85.69059337 72.68496876 79.26249032 72.62929062 72.8343811 72.57406616 C60.22114067 72.4665101 47.60785971 72.36487442 34.99453735 72.26742554 Z M-2.31796265 118.26742554 C-6.45555175 123.17123485 -5.22924605 130.07983856 -5.25546265 136.14242554 C-5.27608765 137.32707397 -5.29671265 138.51172241 -5.31796265 139.73226929 C-5.3231189 140.87566772 -5.32827515 142.01906616 -5.33358765 143.19711304 C-5.34293335 144.24109253 -5.35227905 145.28507202 -5.36190796 146.36068726 C-4.9489496 149.72827781 -4.01780484 151.55659902 -2.00546265 154.26742554 C1.78036263 157.19192586 1.78036263 157.19192586 10.99453735 156.26742554 C10.99453735 142.07742554 10.99453735 127.88742554 10.99453735 113.26742554 C5.12739728 113.26742554 2.0921434 114.45327976 -2.31796265 118.26742554 Z M175.99453735 113.26742554 C175.99453735 127.45742554 175.99453735 141.64742554 175.99453735 156.26742554 C185.15335292 157.11629369 185.15335292 157.11629369 189.05703735 154.45492554 C193.36436334 149.59181555 192.21677426 143.09403877 192.24453735 136.95492554 C192.26516235 135.82635132 192.28578735 134.6977771 192.30703735 133.53500366 C192.34105516 126.31047285 191.96116402 121.40357372 186.80703735 115.95492554 C183.38474628 113.64389644 183.38474628 113.64389644 175.99453735 113.26742554 Z M57.99453735 238.26742554 C57.80117798 239.22004272 57.6078186 240.17265991 57.40859985 241.15414429 C57.01801392 243.03553101 57.01801392 243.03553101 56.61953735 244.95492554 C56.36430298 246.19629272 56.1090686 247.43765991 55.84609985 248.71664429 C55.11882482 251.74918102 54.1731074 254.39590953 52.99453735 257.26742554 C52.10080826 265.01307766 55.19237626 271.23648155 59.74453735 277.32992554 C65.17453186 283.19198413 72.83227779 286.05271661 79.99453735 289.26742554 C81.14824829 289.81140991 82.30195923 290.35539429 83.4906311 290.91586304 C89.01755706 293.41367477 91.96663972 294.57232415 97.99453735 293.26742554 C101.89083397 291.78784633 105.61276257 289.94414405 109.36953735 288.14242554 C110.37242798 287.68094116 111.3753186 287.21945679 112.40859985 286.74398804 C120.6806215 282.80286778 128.52742725 278.15886939 132.30703735 269.43539429 C134.36041405 262.96025754 134.61108657 257.6393153 131.83047485 251.42758179 C130.20334099 247.22288541 129.68800272 242.70560387 128.99453735 238.26742554 C127.26203735 238.88617554 127.26203735 238.88617554 125.49453735 239.51742554 C123.66432287 240.11047178 121.83047506 240.69234151 119.99453735 241.26742554 C118.31811157 241.80689819 118.31811157 241.80689819 116.6078186 242.35726929 C100.0222605 247.14713756 83.31293568 246.88820718 66.99453735 241.26742554 C66.03289673 240.9593396 65.0712561 240.65125366 64.08047485 240.33383179 C62.04210579 239.67435944 60.01610033 238.97674588 57.99453735 238.26742554 Z M29.36953735 262.76742554 C28.36664673 263.23148804 27.3637561 263.69555054 26.33047485 264.17367554 C25.55961548 264.53461304 24.7887561 264.89555054 23.99453735 265.26742554 C24.79571186 276.18492286 26.04312649 287.00282741 28.05703735 297.76742554 C28.21196655 298.75170532 28.36689575 299.73598511 28.52651978 300.75009155 C29.55135073 305.94620183 29.55135073 305.94620183 32.93936157 309.80648804 C40.08335617 313.27465261 45.75013789 312.81106911 53.1468811 310.29867554 C55.41280847 309.46629406 57.67446144 308.62219845 59.93203735 307.76742554 C61.09283813 307.33816772 62.25363892 306.90890991 63.44961548 306.46664429 C66.30183282 305.4102675 69.14975871 304.34363917 71.99453735 303.26742554 C68.58578825 300.61201923 65.17759032 298.88758416 61.24453735 297.07992554 C49.50056583 291.34365126 43.71046664 283.19441567 38.99453735 271.26742554 C38.03488222 267.61220575 37.37042325 264.02628454 36.99453735 260.26742554 C34.07521618 260.26742554 32.00410458 261.54204543 29.36953735 262.76742554 Z M149.99453735 260.26742554 C149.66582642 261.8259021 149.66582642 261.8259021 149.33047485 263.41586304 C146.46400707 276.31264517 142.29783094 286.50510901 130.99453735 294.26742554 C125.80281773 297.21905003 120.41438536 299.76698032 114.99453735 302.26742554 C118.48809513 305.76098331 123.40501894 306.81744481 127.99453735 308.45492554 C128.99871704 308.83584351 130.00289673 309.21676147 131.0375061 309.60922241 C139.26773119 312.54250445 145.06507154 312.45094394 153.4437561 310.43930054 C157.71410473 306.8032916 157.90369628 301.86774036 158.80703735 296.51742554 C159.0100647 295.44492554 159.21309204 294.37242554 159.42227173 293.26742554 C160.81738186 285.79000358 162.14274867 278.45823294 162.05703735 270.82992554 C162.04801392 269.7793396 162.03899048 268.72875366 162.0296936 267.64633179 C162.01809204 266.86129272 162.00649048 266.07625366 161.99453735 265.26742554 C160.37203795 264.42923396 158.74645239 263.59701394 157.11953735 262.76742554 C156.21461548 262.30336304 155.3096936 261.83930054 154.37734985 261.36117554 C152.12856876 260.12836965 152.12856876 260.12836965 149.99453735 260.26742554 Z M1.30703735 277.26742554 C-0.21470093 278.10273804 -0.21470093 278.10273804 -1.7671814 278.95492554 C-11.42535971 285.85195999 -13.63229273 293.4892307 -15.75546265 304.76742554 C-16.03308731 306.13768996 -16.31302437 307.50748797 -16.5953064 308.87680054 C-17.29385342 312.29661376 -17.94937676 315.72322353 -18.59603882 319.15316772 C-19.02346242 321.36037606 -19.48156013 323.55968516 -19.94491577 325.75961304 C-20.24122544 327.21011636 -20.53745215 328.66063664 -20.83358765 330.11117554 C-21.05459137 331.12238464 -21.05459137 331.12238464 -21.28005981 332.15402222 C-22.15052276 336.42819305 -22.15052276 336.42819305 -20.00546265 340.26742554 C-17.99262557 341.31313077 -17.99262557 341.31313077 -15.69296265 342.14242554 C-10.76628321 344.22557134 -7.25068439 346.62684894 -4.90390015 351.60336304 C-3.0489325 357.10374537 -3.05408848 362.72472407 -5.09140015 368.16976929 C-8.22964356 374.49160645 -8.22964356 374.49160645 -10.00546265 376.26742554 C-10.28414093 379.06476877 -10.31678083 380.73628191 -8.8789978 383.18930054 C-8.35612183 383.79258179 -7.83324585 384.39586304 -7.29452515 385.01742554 C-6.71436646 385.70135376 -6.13420776 386.38528198 -5.53646851 387.0899353 C-4.90748657 387.80850708 -4.27850464 388.52707886 -3.63046265 389.26742554 C-2.3305972 390.79593926 -1.03243009 392.32589882 0.2640686 393.85726929 C0.90424927 394.60863159 1.54442993 395.3599939 2.20401001 396.13412476 C4.5827665 398.96826359 6.82328577 401.87989659 9.05703735 404.82992554 C12.71413407 409.64032236 16.47662953 414.34412407 20.30703735 419.01742554 C24.79611372 424.497922 29.15826076 430.05509037 33.43203735 435.70492554 C38.51513855 442.42047084 43.7417076 448.99876321 49.19668579 455.41732788 C52.30036461 459.08570623 54.80263933 462.64139844 57.18203735 466.82992554 C58.94942277 469.24845294 60.16431287 470.13070055 63.12930298 470.61898804 C68.78277776 471.0243814 74.35294769 470.72393779 79.99453735 470.26742554 C78.78789883 467.70411672 77.57941783 465.14170465 76.36953735 462.57992554 C75.9734729 461.74050415 75.57740845 460.90108276 75.16934204 460.03622437 C72.72633495 454.87461018 70.24986193 449.73122269 67.73672485 444.60336304 C41.31768229 390.615647 17.70307253 334.07322862 8.99453735 274.26742554 C5.93289724 274.26742554 3.95752441 275.77756581 1.30703735 277.26742554 Z M177.99453735 274.26742554 C177.88496704 274.95852417 177.77539673 275.6496228 177.6625061 276.36166382 C167.85038362 337.13898757 143.73635226 393.0595756 117.36953735 448.26742554 C116.89693481 449.2575061 116.42433228 450.24758667 115.93740845 451.26766968 C113.43430748 456.4553667 110.80073127 461.51302387 107.89932251 466.49008179 C106.84331557 468.23208476 106.84331557 468.23208476 106.99453735 470.26742554 C117.86593001 472.11555149 117.86593001 472.11555149 127.99307251 468.92269897 C131.78220716 465.23072162 134.66752773 460.87800479 137.53897095 456.45687866 C139.35145954 453.7305456 141.34408949 451.19295623 143.39736938 448.64559937 C144.78829982 446.91572901 146.13084305 445.15482652 147.4750061 443.38851929 C149.0454481 441.36697369 150.50788172 439.79871981 152.4203186 438.05258179 C157.72652653 432.99142077 158.41570875 428.59217629 158.68618774 421.51400757 C158.72524582 419.29897354 158.75561272 417.08377003 158.77749634 414.86849976 C159.03821276 389.05186457 170.31602916 367.97176323 188.3656311 349.89242554 C194.33627288 344.23703364 200.75524782 340.13584314 207.99453735 336.26742554 C207.30884958 328.23116479 205.75978279 320.3926237 204.14810181 312.5015564 C203.6828197 310.20878071 203.23408161 307.91313855 202.78555298 305.61703491 C200.6106981 294.75957014 198.52828321 285.85201655 188.99453735 279.26742554 C183.84039841 275.7290302 183.84039841 275.7290302 177.99453735 274.26742554 Z M216.99453735 299.26742554 C218.97453735 309.16742554 220.95453735 319.06742554 222.99453735 329.26742554 C229.59453735 327.94742554 236.19453735 326.62742554 242.99453735 325.26742554 C238.17471406 315.62777895 228.00223417 305.17443369 218.99453735 299.26742554 C218.33453735 299.26742554 217.67453735 299.26742554 216.99453735 299.26742554 Z M82.36953735 315.57992554 C81.48524048 315.88865601 80.6009436 316.19738647 79.68984985 316.51547241 C78.8493811 316.82162476 78.00891235 317.1277771 77.14297485 317.44320679 C76.37130981 317.72075806 75.59964478 317.99830933 74.80459595 318.28427124 C72.63996269 319.19329602 72.63996269 319.19329602 71.99453735 322.26742554 C73.86016333 329.17574307 77.74970005 336.38754463 82.99453735 341.26742554 C88.90290371 344.1928692 95.30272915 344.20286356 101.58535767 342.46029663 C108.45175157 339.06049924 111.56958103 331.07006781 114.43154907 324.35214233 C115.24575669 322.10003759 115.24575669 322.10003759 113.99453735 319.26742554 C112.14357275 318.20277942 112.14357275 318.20277942 109.84609985 317.44320679 C109.0056311 317.13705444 108.16516235 316.8309021 107.29922485 316.51547241 C106.41492798 316.20674194 105.5306311 315.89801147 104.61953735 315.57992554 C103.3046936 315.09942749 103.3046936 315.09942749 101.96328735 314.60922241 C94.1061852 311.79195872 90.09636722 312.75622374 82.36953735 315.57992554 Z M130.99453735 326.26742554 C127.34264257 331.49627488 123.90929692 336.86710028 120.61953735 342.32992554 C119.93117798 343.4552771 119.2428186 344.58062866 118.53359985 345.74008179 C115.74790166 352.12456266 117.02506625 358.65677324 118.23672485 365.34555054 C118.36515778 366.07940979 118.4935907 366.81326904 118.62591553 367.56936646 C118.89664991 369.10603114 119.17076762 370.64210332 119.44815063 372.17758179 C119.87064972 374.52360221 120.2789756 376.87179175 120.6859436 379.22055054 C120.95203069 380.72069977 121.21892934 382.22070533 121.48672485 383.72055054 C121.60764496 384.41851746 121.72856506 385.11648438 121.85314941 385.83560181 C122.48353488 389.27502046 123.20311649 392.24470462 124.99453735 395.26742554 C130.93234614 381.03126427 136.66839777 366.74334252 141.99453735 352.26742554 C142.45062378 351.03556519 142.90671021 349.80370483 143.37661743 348.53451538 C145.9345699 341.52035809 148.1765416 334.50984765 149.99453735 327.26742554 C149.23181519 327.27765747 148.46909302 327.2878894 147.68325806 327.2984314 C142.00999022 327.36488482 136.60383179 327.11411149 130.99453735 326.26742554 Z M47.99453735 327.26742554 C44.32581629 327.39120155 40.66453555 327.31164238 36.99453735 327.26742554 C39.07208602 335.38091721 41.60696845 343.26013452 44.43203735 351.14242554 C44.85726685 352.33319702 45.28249634 353.52396851 45.72061157 354.75082397 C50.68154703 368.44564977 56.29673602 381.86534699 61.99453735 395.26742554 C64.20891239 391.56983703 64.80227228 387.65238755 65.50234985 383.46664429 C65.63269623 382.71204422 65.7630426 381.95744415 65.89733887 381.17997742 C66.17097756 379.58604286 66.44142638 377.99155781 66.70889282 376.39657593 C67.11661331 373.97231163 67.53723662 371.55054287 67.9593811 369.12875366 C68.22448451 367.57485016 68.48883191 366.02081745 68.75234985 364.46664429 C68.9398027 363.3912867 68.9398027 363.3912867 69.13104248 362.29420471 C70.28045075 355.3444446 70.95866042 350.01303791 67.29141235 343.80648804 C66.72293579 342.84098022 66.15445923 341.87547241 65.5687561 340.88070679 C64.96676392 339.89457397 64.36477173 338.90844116 63.74453735 337.89242554 C63.15801392 336.8830896 62.57149048 335.87375366 61.9671936 334.83383179 C59.32232699 329.72648625 59.32232699 329.72648625 54.94155884 326.44882202 C52.46343595 326.21794487 50.42330348 326.74101135 47.99453735 327.26742554 Z M199.99453735 360.26742554 C199.1643811 361.01765991 198.33422485 361.76789429 197.47891235 362.54086304 C182.66288741 376.60277893 174.19123462 395.19154601 173.59194946 415.56893921 C173.32922687 438.22738516 179.89742059 456.16283826 195.43203735 472.89242554 C196.70047485 474.06805054 196.70047485 474.06805054 197.99453735 475.26742554 C198.6390686 475.88230835 199.28359985 476.49719116 199.94766235 477.13070679 C214.32835 490.48061087 232.45531086 497.07974887 251.99453735 497.26742554 C275.53834432 496.19699775 294.30282177 486.70338473 310.6781311 469.89242554 C325.81404299 452.74009369 330.24528777 432.18213818 329.19717407 409.95541382 C328.04022641 394.60843344 320.33152653 378.60821325 309.99453735 367.26742554 C309.2675061 366.44887085 308.54047485 365.63031616 307.79141235 364.78695679 C298.6385068 355.02877845 287.54904692 348.69842891 274.99453735 344.26742554 C274.1334436 343.94773804 273.27234985 343.62805054 272.38516235 343.29867554 C247.87797657 335.64903373 218.75472835 343.12935632 199.99453735 360.26742554 Z M85.99453735 357.26742554 C73.79655717 396.40516157 73.79655717 396.40516157 77.65249634 435.45004272 C79.90720086 439.43410113 82.2986461 443.1567123 85.11953735 446.76303101 C88.26448829 450.9636699 90.59546962 455.61280971 92.99453735 460.26742554 C95.78213825 456.8337134 97.78314555 453.07824414 99.7875061 449.15805054 C100.13839798 448.47241028 100.48928986 447.78677002 100.85081482 447.08035278 C101.58851551 445.63252458 102.32379404 444.18345998 103.05679321 442.73324585 C103.80517479 441.25953979 104.56069266 439.7894354 105.32339478 438.3230896 C106.43154628 436.19248939 107.51783611 434.05194178 108.6000061 431.90805054 C108.94057541 431.2619281 109.28114471 430.61580566 109.6320343 429.95010376 C113.99242226 421.14719906 111.5105531 412.36769307 109.8421936 403.08773804 C109.62260483 401.8386264 109.40301605 400.58951477 109.17677307 399.30255127 C108.71339542 396.6746518 108.24750516 394.04736331 107.77700806 391.42074585 C107.17382378 388.05263441 106.57950555 384.68303429 105.98818302 381.31282234 C105.42228284 378.09132299 104.85094589 374.87079198 104.2796936 371.65023804 C104.0661171 370.43885162 103.85254059 369.22746521 103.63249207 367.97937012 C103.43236008 366.86415985 103.23222809 365.74894958 103.02603149 364.59994507 C102.85060318 363.61591705 102.67517487 362.63188904 102.49443054 361.61804199 C102.09613824 359.26114491 102.09613824 359.26114491 100.99453735 357.26742554 C96.04453735 357.26742554 91.09453735 357.26742554 85.99453735 357.26742554 Z M161.99453735 450.26742554 C160.18079169 452.2610468 158.42272751 454.27397455 156.68203735 456.32992554 C156.19541626 456.89131226 155.70879517 457.45269897 155.20742798 458.03109741 C154.72854126 458.59506226 154.24965454 459.1590271 153.7562561 459.74008179 C153.32272827 460.24805298 152.88920044 460.75602417 152.4425354 461.27938843 C150.37991831 464.11127022 148.73271987 467.22560613 146.99453735 470.26742554 C155.24453735 470.26742554 163.49453735 470.26742554 171.99453735 470.26742554 C170.79977959 467.28053112 169.62860479 464.39553211 168.26797485 461.49789429 C167.95859985 460.83724976 167.64922485 460.17660522 167.33047485 459.49594116 C167.01336548 458.82240601 166.6962561 458.14887085 166.36953735 457.45492554 C165.88227173 456.4156189 165.88227173 456.4156189 165.38516235 455.35531616 C164.58953851 453.65876531 163.79221037 451.96301389 162.99453735 450.26742554 C162.66453735 450.26742554 162.33453735 450.26742554 161.99453735 450.26742554 Z " fill="#000000" transform="translate(129.00546264648438,-0.267425537109375)"/>
<path d="M0 0 C1.00039307 0.00684814 2.00078613 0.01369629 3.03149414 0.02075195 C14.18017913 0.26113788 26.41065605 2.16065605 34.6875 10.4375 C35.26721014 17.50996377 35.26721014 17.50996377 33.125 20.9375 C29.64435867 23.07943313 27.75025625 22.96172661 23.6875 22.4375 C21.07158716 21.53865784 18.55164734 20.5226923 16.01953125 19.41015625 C5.84086693 15.1647837 -8.57158408 16.10767884 -18.609375 20.1171875 C-33.58644096 27.43257521 -41.8816246 37.41083821 -47.625 53 C-50.53631086 67.55655431 -48.8428376 81.29131915 -40.67578125 93.98046875 C-32.67107243 104.71937025 -21.53283083 112.33026 -8.25 114.9375 C6.42221602 116.66936635 19.64397483 113.2269947 31.4765625 104.3046875 C41.64681812 95.71567304 47.56368624 83.95025037 49.4375 70.8125 C50.14088614 62.38465511 48.56579517 54.33480989 45.5 46.5 C43.90866011 42.42070707 43.08553415 39.70940894 44.6875 35.4375 C45.75 33.5625 45.75 33.5625 47.6875 32.4375 C54.71189024 31.6570122 54.71189024 31.6570122 57.77734375 34.109375 C66.0470439 44.18860054 67.45880969 60.17197351 66.3059082 72.76953125 C65.4402087 80.03550265 63.73702434 86.77109796 60.6875 93.4375 C60.28917969 94.32695312 59.89085937 95.21640625 59.48046875 96.1328125 C51.66777215 111.9383255 37.54119913 123.26660141 21.17578125 129.375 C3.9804654 134.72122675 -14.02533782 132.76300445 -30.3125 125.4375 C-46.23890359 116.62796758 -57.69557889 103.37212234 -63.34375 86.0078125 C-68.27885278 67.8195708 -66.77984875 49.64457731 -57.7746582 33.02172852 C-48.71814014 17.33386033 -34.4205112 6.99711962 -17.171875 1.82421875 C-11.39696328 0.29675241 -5.95383645 -0.06315058 0 0 Z " fill="#000000" transform="translate(380.3125,352.5625)"/>
<path d="M0 0 C2.58455285 1.89533875 2.96275506 2.88826517 4 6 C4.08106686 7.55421729 4.10756898 9.11167027 4.09765625 10.66796875 C4.09443359 11.56064453 4.09121094 12.45332031 4.08789062 13.37304688 C4.07532227 14.76620117 4.07532227 14.76620117 4.0625 16.1875 C4.05798828 17.12787109 4.05347656 18.06824219 4.04882812 19.03710938 C4.03704626 21.35813712 4.02059558 23.67903644 4 26 C4.64549805 25.97381592 5.29099609 25.94763184 5.95605469 25.9206543 C8.88712117 25.81657561 11.81779909 25.7516419 14.75 25.6875 C15.76578125 25.64560547 16.7815625 25.60371094 17.828125 25.56054688 C25.35268383 25.43678768 25.35268383 25.43678768 28.67578125 28.328125 C30.27557252 31.55602244 30.53013502 33.44052199 30 37 C28.22015595 40.1359157 27.47691793 40.84102736 24 42 C22.44578271 42.08106686 20.88832973 42.10756898 19.33203125 42.09765625 C18.43935547 42.09443359 17.54667969 42.09121094 16.62695312 42.08789062 C15.69818359 42.07951172 14.76941406 42.07113281 13.8125 42.0625 C12.40194336 42.05573242 12.40194336 42.05573242 10.96289062 42.04882812 C8.64186288 42.03704626 6.32096356 42.02059558 4 42 C4.05220703 43.95292969 4.05220703 43.95292969 4.10546875 45.9453125 C4.13361901 47.67186204 4.16091784 49.39842561 4.1875 51.125 C4.21263672 51.9809375 4.23777344 52.836875 4.26367188 53.71875 C4.32355622 58.90872628 3.95205194 62.52546123 1 67 C-2.09173752 68.54586876 -4.59429552 68.29359521 -8 68 C-10.2109375 66.68359375 -10.2109375 66.68359375 -12 64 C-12.49677858 60.23960878 -12.37486914 56.53449539 -12.25 52.75 C-12.23195313 51.71875 -12.21390625 50.6875 -12.1953125 49.625 C-12.14822712 47.08238936 -12.0824805 44.54166838 -12 42 C-12.92280762 42.01571045 -12.92280762 42.01571045 -13.86425781 42.03173828 C-16.65946343 42.07338695 -19.45460366 42.09935416 -22.25 42.125 C-23.70212891 42.15013672 -23.70212891 42.15013672 -25.18359375 42.17578125 C-26.58544922 42.18544922 -26.58544922 42.18544922 -28.015625 42.1953125 C-28.87446289 42.20578613 -29.73330078 42.21625977 -30.61816406 42.22705078 C-33.21306642 41.97968924 -34.79282671 41.36289602 -37 40 C-39.09679403 37.30412197 -38.99510821 35.907056 -38.8125 32.4375 C-37.76978539 28.02601509 -37.76978539 28.02601509 -35 26 C-32.5480957 25.65942383 -32.5480957 25.65942383 -29.67578125 25.70703125 C-28.64775391 25.71669922 -27.61972656 25.72636719 -26.56054688 25.73632812 C-24.95276367 25.7740332 -24.95276367 25.7740332 -23.3125 25.8125 C-22.22904297 25.82603516 -21.14558594 25.83957031 -20.02929688 25.85351562 C-17.35236595 25.88889357 -14.67643162 25.93825811 -12 26 C-12.02618408 25.32420898 -12.05236816 24.64841797 -12.0793457 23.95214844 C-12.18339264 20.88500288 -12.24834947 17.81822842 -12.3125 14.75 C-12.35439453 13.68652344 -12.39628906 12.62304688 -12.43945312 11.52734375 C-12.56296024 3.67229152 -12.56296024 3.67229152 -9.70703125 0.26171875 C-6.02578709 -1.45407037 -3.87128516 -1.07535699 0 0 Z " fill="#000000" transform="translate(385,383)"/>
</svg>
