<?xml version="1.0" standalone="no"?>
<!DOCTYPE svg PUBLIC "-//W3C//DTD SVG 20010904//EN"
 "http://www.w3.org/TR/2001/REC-SVG-20010904/DTD/svg10.dtd">
<svg version="1.0" xmlns="http://www.w3.org/2000/svg"
 width="512.000000pt" height="512.000000pt" viewBox="0 0 512.000000 512.000000"
 preserveAspectRatio="xMidYMid meet">

<g transform="translate(0.000000,512.000000) scale(0.100000,-0.100000)"
fill="#000000" stroke="none">
<path d="M125 4673 c-133 -70 -166 -233 -67 -336 56 -59 68 -62 312 -67 l225
-5 436 -1280 c239 -704 453 -1316 474 -1359 90 -185 290 -321 503 -342 l65 -7
-54 -14 c-113 -29 -213 -114 -270 -228 -32 -67 -34 -74 -34 -180 0 -108 1
-113 37 -186 46 -93 112 -158 206 -202 63 -30 74 -32 177 -32 105 0 114 2 180
34 264 130 325 463 124 676 -53 56 -126 101 -198 121 -38 10 88 12 749 12 703
1 789 -1 743 -13 -81 -22 -132 -52 -193 -114 -164 -164 -168 -418 -9 -586 95
-100 196 -141 333 -133 114 7 182 36 262 110 75 70 118 150 134 249 35 208
-104 419 -310 472 l-53 14 73 7 c87 8 190 42 268 88 72 42 178 148 220 220 37
63 649 1739 658 1803 12 85 -36 174 -117 216 -36 18 -62 19 -442 19 -403 0
-404 0 -448 -23 -24 -13 -57 -43 -74 -66 -27 -39 -30 -50 -30 -121 0 -71 3
-82 30 -121 17 -23 50 -53 74 -66 42 -22 53 -23 268 -23 122 0 223 -2 223 -5
0 -11 -490 -1355 -503 -1381 -22 -42 -52 -71 -97 -94 -38 -20 -59 -20 -1011
-20 l-971 0 -48 26 c-26 14 -57 39 -69 54 -11 16 -44 96 -72 177 -91 267 -810
2375 -851 2497 -45 131 -77 177 -143 207 -36 17 -72 19 -360 18 -272 0 -325
-2 -350 -16z"/>
<path d="M2928 3618 c-21 -5 -58 -28 -82 -50 -68 -59 -76 -96 -76 -360 l0
-218 -216 0 c-125 0 -234 -5 -259 -11 -27 -7 -63 -28 -90 -51 -112 -98 -88
-275 46 -342 53 -26 54 -26 285 -26 l232 0 4 -242 3 -243 28 -47 c71 -121 234
-142 332 -44 59 60 65 90 65 350 l0 226 226 0 c260 0 290 6 350 65 98 98 77
261 -44 332 l-47 28 -242 3 -243 4 0 233 0 233 -28 53 c-46 89 -149 134 -244
107z"/>
</g>
</svg>
