<?xml version="1.0" standalone="no"?>
<!DOCTYPE svg PUBLIC "-//W3C//DTD SVG 20010904//EN"
 "http://www.w3.org/TR/2001/REC-SVG-20010904/DTD/svg10.dtd">
<svg version="1.0" xmlns="http://www.w3.org/2000/svg"
 width="512.000000pt" height="512.000000pt" viewBox="0 0 512.000000 512.000000"
 preserveAspectRatio="xMidYMid meet">

<g transform="translate(0.000000,512.000000) scale(0.100000,-0.100000)"
fill="#000000" stroke="none">
<path d="M2420 4954 c-200 -26 -408 -102 -565 -207 -83 -56 -108 -77 -203
-170 -172 -170 -294 -396 -348 -647 -26 -119 -26 -381 0 -500 110 -512 494
-896 1006 -1006 119 -26 381 -26 500 0 513 111 895 493 1006 1006 26 119 26
381 0 500 -111 513 -494 896 -1006 1006 -73 15 -320 27 -390 18z"/>
<path d="M1429 2381 c-137 -89 -213 -151 -337 -274 -368 -364 -582 -847 -608
-1367 -7 -146 3 -217 46 -308 36 -77 133 -178 208 -216 114 -58 53 -56 1572
-55 1338 0 1392 1 1329 17 -173 45 -316 198 -349 371 -5 30 -10 116 -10 192
l0 139 -148 0 c-216 0 -305 28 -420 134 -195 181 -202 481 -15 677 107 113
213 149 434 149 l147 0 4 173 c3 126 9 183 21 215 9 23 15 42 13 42 -2 0 -37
-16 -77 -36 -95 -47 -278 -107 -399 -130 -144 -27 -428 -26 -575 4 -115 23
-269 71 -368 115 -78 35 -232 127 -293 174 -27 22 -54 42 -60 46 -6 3 -58 -24
-115 -62z"/>
<path d="M3695 2226 c-37 -17 -70 -52 -84 -89 -7 -18 -11 -138 -11 -322 l0
-294 -309 -3 c-295 -3 -311 -4 -337 -24 -53 -39 -69 -71 -69 -134 0 -63 16
-95 69 -134 26 -20 42 -21 336 -24 l309 -3 3 -309 c3 -294 4 -310 24 -336 39
-53 71 -69 134 -69 63 0 95 16 134 69 20 26 21 42 24 336 l3 309 309 3 c294 3
310 4 336 24 53 39 69 71 69 134 0 63 -16 95 -69 134 -26 20 -42 21 -336 24
l-309 3 -3 309 c-3 294 -4 310 -24 336 -11 15 -32 37 -46 47 -34 25 -113 32
-153 13z"/>
</g>
</svg>
