<?xml version="1.0" standalone="no"?>
<!DOCTYPE svg PUBLIC "-//W3C//DTD SVG 20010904//EN"
 "http://www.w3.org/TR/2001/REC-SVG-20010904/DTD/svg10.dtd">
<svg version="1.0" xmlns="http://www.w3.org/2000/svg"
 width="512.000000pt" height="512.000000pt" viewBox="0 0 512.000000 512.000000"
 preserveAspectRatio="xMidYMid meet">

<g transform="translate(0.000000,512.000000) scale(0.100000,-0.100000)"
fill="#000000" stroke="none">
<path d="M898 4669 l-898 -449 0 -1125 0 -1125 900 -450 900 -450 70 35 70 35
-7 43 c-5 23 -8 122 -8 220 0 97 -1 177 -3 177 -1 0 -29 -14 -62 -30 l-60 -30
-700 350 -700 350 0 775 0 775 600 -300 600 -300 0 -490 0 -490 200 0 200 0 0
490 0 490 600 300 600 300 0 -323 0 -323 93 23 c50 13 135 28 187 34 52 6 101
13 108 15 9 3 12 114 12 514 l0 510 -900 450 c-495 247 -901 450 -902 449 -2
0 -407 -202 -900 -450z m1480 -287 l572 -287 -575 -288 -575 -287 -575 287
-575 288 572 287 c315 158 575 287 578 287 3 0 263 -129 578 -287z"/>
<path d="M3542 2789 c-175 -24 -360 -86 -507 -170 -129 -74 -219 -145 -326
-257 -187 -195 -303 -414 -361 -685 -31 -146 -31 -408 0 -554 58 -269 173
-489 357 -681 190 -200 413 -332 669 -397 392 -99 789 -29 1139 202 94 62 299
267 362 363 166 250 239 491 239 790 0 241 -41 420 -141 620 -76 150 -139 236
-268 365 -208 209 -422 326 -703 385 -114 24 -350 34 -460 19z m413 -418 c465
-115 786 -544 762 -1016 -20 -368 -226 -685 -554 -849 -269 -135 -590 -139
-859 -12 -121 57 -204 115 -289 201 -336 335 -390 853 -130 1251 149 229 388
387 662 439 104 20 301 13 408 -14z"/>
<path d="M3520 1800 l0 -200 -200 0 -200 0 0 -200 0 -200 200 0 200 0 0 -200
0 -200 200 0 200 0 0 200 0 200 200 0 200 0 0 200 0 200 -200 0 -200 0 0 200
0 200 -200 0 -200 0 0 -200z"/>
</g>
</svg>
