<?xml version="1.0" standalone="no"?>
<!DOCTYPE svg PUBLIC "-//W3C//DTD SVG 20010904//EN"
 "http://www.w3.org/TR/2001/REC-SVG-20010904/DTD/svg10.dtd">
<svg version="1.0" xmlns="http://www.w3.org/2000/svg"
 width="512.000000pt" height="512.000000pt" viewBox="0 0 512.000000 512.000000"
 preserveAspectRatio="xMidYMid meet">

<g transform="translate(0.000000,512.000000) scale(0.100000,-0.100000)"
fill="#000000" stroke="none">
<path d="M386 5029 c-62 -15 -153 -68 -197 -116 -22 -24 -55 -74 -72 -111
l-32 -67 0 -975 0 -975 32 -67 c44 -93 100 -151 191 -196 l76 -37 448 -3 448
-3 0 -239 0 -240 -56 0 c-87 0 -133 -18 -189 -75 -57 -56 -75 -102 -75 -189
l0 -56 -415 0 -416 0 -24 -25 -25 -24 0 -751 0 -751 25 -24 24 -25 2431 0
2431 0 24 25 25 24 0 751 0 751 -25 24 c-20 21 -34 25 -80 25 l-55 0 0 375 0
376 -25 24 c-20 21 -34 25 -80 25 l-55 0 0 415 0 416 -25 24 c-15 16 -35 25
-56 25 -27 0 -48 -16 -135 -102 l-104 -102 -104 102 c-138 136 -134 136 -272
0 l-104 -102 -104 102 c-87 86 -108 102 -135 102 -21 0 -41 -9 -56 -25 l-25
-24 0 -416 0 -415 -55 0 c-46 0 -60 -4 -80 -25 l-25 -24 0 -376 0 -375 -440 0
-440 0 0 56 c0 81 -18 129 -67 184 -51 57 -108 80 -195 80 l-58 0 0 240 0 239
448 3 448 3 76 37 c91 45 147 103 191 196 l32 67 0 975 0 975 -32 67 c-44 93
-100 151 -191 196 l-76 37 -1355 2 c-797 1 -1372 -3 -1395 -8z m2728 -161 c55
-16 138 -99 154 -154 9 -31 12 -237 12 -818 l0 -776 -1520 0 -1520 0 0 776 c0
581 3 787 12 818 15 51 99 137 148 153 53 17 2658 17 2714 1z m1151 -1808
c129 -126 138 -128 231 -38 l64 61 0 -301 0 -302 -400 0 -400 0 0 302 0 301
64 -61 c93 -90 103 -88 230 38 56 55 103 100 105 100 3 0 51 -45 106 -100z
m-985 -156 c0 -31 -5 -75 -12 -98 -16 -55 -99 -138 -154 -154 -60 -17 -2648
-17 -2708 0 -55 16 -138 99 -154 154 -7 23 -12 67 -12 98 l0 56 1520 0 1520 0
0 -56z m-1200 -664 l0 -240 -320 0 -320 0 0 240 0 240 320 0 320 0 0 -240z
m2640 -240 l0 -320 -560 0 -560 0 0 320 0 320 560 0 560 0 0 -320z m-2345
-185 c21 -20 25 -34 25 -80 l0 -55 -640 0 -640 0 0 55 c0 46 4 60 25 80 l24
25 591 0 591 0 24 -25z m2505 -935 l0 -640 -2320 0 -2320 0 0 640 0 640 2320
0 2320 0 0 -640z"/>
<path d="M1680 4636 l0 -85 -53 -24 c-66 -30 -118 -81 -154 -150 -24 -45 -28
-63 -28 -137 1 -77 4 -91 34 -148 53 -98 139 -156 248 -168 86 -9 119 -21 152
-59 101 -115 -2 -289 -154 -261 -51 10 -103 60 -117 112 l-12 44 -79 0 -80 0
6 -45 c14 -100 89 -199 184 -242 l53 -24 0 -85 0 -84 80 0 80 0 0 84 0 85 53
24 c66 30 118 81 154 150 24 45 28 63 28 137 -1 77 -4 91 -34 148 -53 98 -139
156 -248 168 -86 9 -119 21 -152 59 -101 115 2 289 154 261 51 -10 103 -60
117 -112 l12 -44 79 0 80 0 -6 45 c-14 100 -89 199 -184 242 l-53 24 0 85 0
84 -80 0 -80 0 0 -84z"/>
<path d="M3920 2720 l0 -80 240 0 240 0 0 80 0 80 -240 0 -240 0 0 -80z"/>
<path d="M4400 2080 l0 -80 80 0 80 0 0 80 0 80 -80 0 -80 0 0 -80z"/>
<path d="M425 1335 l-25 -24 0 -431 0 -431 25 -24 24 -25 1151 0 1151 0 24 25
25 24 0 431 0 431 -25 24 -24 25 -1151 0 -1151 0 -24 -25z m560 -285 c41 -82
83 -154 94 -160 27 -14 1015 -14 1042 0 11 6 53 78 94 160 l75 150 175 0 175
0 0 -320 0 -320 -1040 0 -1040 0 0 320 0 320 175 0 175 0 75 -150z m1085 70
l-40 -80 -430 0 -430 0 -40 80 -40 80 510 0 510 0 -40 -80z"/>
<path d="M2985 1335 c-25 -24 -25 -26 -25 -215 0 -257 -17 -240 240 -240 257
0 240 -17 240 240 0 257 17 240 -240 240 -189 0 -191 0 -215 -25z m295 -215
l0 -80 -80 0 -80 0 0 80 0 80 80 0 80 0 0 -80z"/>
<path d="M3625 1335 c-25 -24 -25 -26 -25 -215 0 -257 -17 -240 240 -240 257
0 240 -17 240 240 0 257 17 240 -240 240 -189 0 -191 0 -215 -25z m295 -215
l0 -80 -80 0 -80 0 0 80 0 80 80 0 80 0 0 -80z"/>
<path d="M4265 1335 c-25 -24 -25 -26 -25 -215 0 -257 -17 -240 240 -240 257
0 240 -17 240 240 0 257 17 240 -240 240 -189 0 -191 0 -215 -25z m295 -215
l0 -80 -80 0 -80 0 0 80 0 80 80 0 80 0 0 -80z"/>
<path d="M2960 480 l0 -80 880 0 880 0 0 80 0 80 -880 0 -880 0 0 -80z"/>
<path d="M4240 4040 l0 -280 80 0 80 0 0 280 0 280 -80 0 -80 0 0 -280z"/>
<path d="M3920 3840 l0 -320 80 0 80 0 0 320 0 320 -80 0 -80 0 0 -320z"/>
</g>
</svg>
