<?xml version="1.0" standalone="no"?>
<!DOCTYPE svg PUBLIC "-//W3C//DTD SVG 20010904//EN"
 "http://www.w3.org/TR/2001/REC-SVG-20010904/DTD/svg10.dtd">
<svg version="1.0" xmlns="http://www.w3.org/2000/svg"
 width="512.000000pt" height="512.000000pt" viewBox="0 0 512.000000 512.000000"
 preserveAspectRatio="xMidYMid meet">

<g transform="translate(0.000000,512.000000) scale(0.100000,-0.100000)"
fill="#000000" stroke="none">
<path d="M3366 4430 c-153 -24 -329 -94 -455 -180 -83 -55 -190 -158 -252
-239 -70 -92 -154 -267 -186 -386 -23 -89 -26 -118 -26 -265 0 -146 3 -176 26
-262 58 -218 192 -432 351 -558 31 -25 56 -47 56 -51 0 -3 -28 -14 -62 -23
-139 -38 -294 -127 -408 -232 -278 -258 -441 -741 -444 -1316 l-1 -167 33 -33
c28 -28 39 -33 82 -33 43 0 54 5 82 32 l32 33 8 177 c24 545 137 892 361 1112
112 110 220 170 382 212 89 24 98 24 575 24 468 0 488 -1 572 -22 160 -41 278
-107 387 -215 223 -222 336 -572 359 -1116 l8 -172 32 -33 c28 -27 39 -32 82
-32 43 0 54 5 82 33 31 30 33 37 36 112 5 94 -13 344 -34 484 -59 396 -186
688 -389 892 -123 124 -278 217 -432 260 -35 9 -63 20 -63 23 0 4 25 26 56 51
158 126 293 341 351 558 23 86 26 116 26 262 0 147 -3 176 -26 265 -32 119
-116 294 -186 386 -144 190 -364 335 -596 395 -112 28 -315 40 -419 24z m284
-241 c182 -29 325 -104 460 -239 179 -180 262 -394 247 -640 -23 -360 -269
-662 -622 -762 -114 -32 -316 -32 -428 0 -276 79 -489 276 -578 535 -81 237
-60 476 64 697 57 101 205 250 307 307 170 95 367 132 550 102z"/>
<path d="M755 3311 c-11 -5 -31 -21 -45 -36 l-25 -27 -3 -283 -3 -284 -284 -3
-285 -3 -32 -33 c-28 -28 -33 -39 -33 -82 0 -43 5 -54 33 -82 l32 -33 285 -3
284 -3 3 -284 3 -285 33 -32 c28 -28 39 -33 82 -33 43 0 54 5 82 33 l33 32 3
285 3 284 284 3 285 3 32 33 c28 28 33 39 33 82 0 43 -5 54 -33 82 l-32 33
-285 3 -284 3 -3 284 -3 285 -31 31 c-33 33 -92 46 -129 30z"/>
</g>
</svg>
