<?xml version="1.0" standalone="no"?>
<!DOCTYPE svg PUBLIC "-//W3C//DTD SVG 20010904//EN"
 "http://www.w3.org/TR/2001/REC-SVG-20010904/DTD/svg10.dtd">
<svg version="1.0" xmlns="http://www.w3.org/2000/svg"
 width="512.000000pt" height="512.000000pt" viewBox="0 0 512.000000 512.000000"
 preserveAspectRatio="xMidYMid meet">

<g transform="translate(0.000000,512.000000) scale(0.100000,-0.100000)"
fill="#000000" stroke="none">
<path d="M3312 5105 c-355 -63 -667 -303 -818 -630 -62 -133 -85 -241 -91
-415 -8 -223 26 -377 120 -554 19 -36 32 -68 29 -71 -3 -3 -225 -5 -492 -5
-533 0 -531 0 -613 -60 -53 -39 -103 -110 -118 -171 l-13 -49 -162 0 c-190 0
-244 -9 -341 -55 -178 -84 -289 -257 -295 -460 -3 -99 11 -125 72 -125 57 0
70 22 80 133 7 79 14 106 40 156 40 74 103 134 178 169 54 25 67 27 239 30
l181 4 4 -319 c3 -305 4 -320 26 -367 12 -27 22 -50 22 -52 0 -2 -38 -4 -85
-4 -213 0 -397 -75 -540 -219 l-60 -61 -5 139 c-4 118 -8 142 -24 160 -26 29
-86 29 -112 0 -18 -20 -19 -53 -19 -1083 l0 -1061 23 -40 c13 -22 39 -52 59
-65 36 -25 38 -25 268 -25 l231 0 41 27 c72 48 78 70 81 340 l3 238 805 0
c791 0 804 0 824 20 30 30 27 83 -6 109 -27 21 -29 21 -1100 21 l-1074 0 0
185 0 185 1580 0 1580 0 0 -185 0 -185 -349 0 c-337 0 -349 -1 -375 -21 -33
-26 -36 -79 -6 -109 17 -17 33 -20 100 -20 l80 0 0 -237 c0 -268 3 -281 73
-337 l39 -31 216 -3 c181 -3 223 0 259 13 50 19 88 61 103 113 8 26 10 423 8
1317 l-3 1280 -23 65 c-13 36 -39 89 -58 118 -20 30 -33 56 -30 60 3 3 35 17
70 32 283 120 511 367 612 664 73 213 73 489 0 702 -99 293 -337 549 -615 665
-187 78 -431 107 -619 74z m423 -164 c142 -37 298 -123 412 -225 116 -105 227
-286 273 -446 31 -107 39 -326 15 -441 -45 -223 -165 -419 -343 -561 -85 -68
-244 -148 -349 -177 -91 -25 -107 -37 -179 -138 -33 -45 -61 -82 -64 -82 -3 0
-31 37 -64 82 -32 45 -69 90 -82 100 -13 9 -63 29 -111 43 -345 100 -608 384
-678 733 -26 125 -17 335 19 454 105 352 385 603 749 673 101 19 299 12 402
-15z m-1015 -1707 c60 -61 181 -152 252 -189 l58 -30 0 -305 c0 -345 -3 -361
-76 -416 l-37 -29 -654 -3 c-628 -2 -656 -2 -698 17 -29 13 -53 34 -72 62
l-28 42 -3 341 c-2 188 -1 364 3 393 7 60 36 108 84 140 l34 23 546 0 547 0
44 -46z m617 -400 c77 -107 110 -134 161 -134 54 0 87 25 147 110 31 44 60 80
65 80 12 0 58 -57 79 -99 36 -70 41 -133 41 -481 l0 -339 -73 72 c-149 146
-327 217 -542 217 l-84 0 22 48 c21 45 22 63 25 348 l3 302 42 -13 c37 -10 51
-24 114 -111z m25 -738 c175 -38 326 -157 404 -321 48 -100 64 -185 64 -352
l0 -143 -1580 0 -1580 0 0 169 c0 153 2 178 25 248 61 192 219 341 417 393 70
18 122 19 1128 19 872 1 1067 -2 1122 -13z m-2292 -1705 c0 -174 -3 -221 -14
-230 -9 -8 -70 -11 -197 -9 l-184 3 -3 228 -2 227 200 0 200 0 0 -219z m2760
2 c0 -120 -4 -224 -8 -231 -7 -9 -53 -12 -198 -10 l-189 3 -3 228 -2 227 200
0 200 0 0 -217z"/>
<path d="M3350 4806 c-190 -41 -351 -135 -467 -275 -64 -78 -150 -246 -159
-313 -9 -66 12 -98 65 -98 46 0 63 17 86 90 103 321 433 514 759 445 239 -51
439 -242 501 -480 19 -77 20 -243 0 -320 -85 -336 -431 -552 -770 -480 -228
49 -418 220 -490 445 -23 73 -40 90 -86 90 -68 0 -85 -51 -50 -153 146 -423
600 -645 1023 -501 254 86 451 303 518 568 25 99 27 266 4 369 -21 98 -101
258 -168 339 -100 120 -264 224 -416 263 -89 23 -268 28 -350 11z"/>
<path d="M3457 4386 c-27 -21 -37 -71 -37 -188 l0 -108 -128 0 c-115 0 -130
-2 -150 -20 -30 -28 -30 -82 0 -110 20 -18 35 -20 150 -20 l128 0 0 -108 c0
-155 18 -201 80 -201 62 0 80 46 80 201 l0 108 128 0 c115 0 130 2 150 20 30
28 30 82 0 110 -20 18 -35 20 -150 20 l-128 0 0 108 c0 155 -18 201 -80 201
-14 0 -33 -6 -43 -13z"/>
</g>
</svg>
