<?xml version="1.0" standalone="no"?>
<!DOCTYPE svg PUBLIC "-//W3C//DTD SVG 20010904//EN"
 "http://www.w3.org/TR/2001/REC-SVG-20010904/DTD/svg10.dtd">
<svg version="1.0" xmlns="http://www.w3.org/2000/svg"
 width="512.000000pt" height="512.000000pt" viewBox="0 0 512.000000 512.000000"
 preserveAspectRatio="xMidYMid meet">

<g transform="translate(0.000000,512.000000) scale(0.100000,-0.100000)"
fill="#000000" stroke="none">
<path d="M132 5109 c-46 -14 -109 -80 -122 -128 -7 -27 -10 -353 -8 -1043 l3
-1003 24 -38 c13 -21 42 -50 64 -65 l41 -27 1026 0 1026 0 41 27 c22 15 51 44
64 65 l24 38 0 1026 0 1025 -27 41 c-15 22 -44 51 -65 64 l-38 24 -1010 2
c-620 1 -1023 -2 -1043 -8z m1788 -1149 l0 -760 -760 0 -760 0 0 760 0 760
760 0 760 0 0 -760z"/>
<path d="M2932 5109 c-46 -14 -109 -80 -122 -128 -7 -27 -10 -353 -8 -1043 l3
-1003 24 -38 c13 -21 42 -50 64 -65 l41 -27 1026 0 1026 0 41 27 c22 15 51 44
64 65 l24 38 0 1026 0 1025 -27 41 c-15 22 -44 51 -65 64 l-38 24 -1010 2
c-620 1 -1023 -2 -1043 -8z m1788 -1149 l0 -760 -760 0 -760 0 0 760 0 760
760 0 760 0 0 -760z"/>
<path d="M132 2309 c-46 -14 -109 -80 -122 -128 -7 -27 -10 -353 -8 -1043 l3
-1003 24 -38 c13 -21 42 -50 64 -65 l41 -27 1026 0 1026 0 41 27 c22 15 51 44
64 65 l24 38 0 1026 0 1025 -27 41 c-15 22 -44 51 -65 64 l-38 24 -1010 2
c-620 1 -1023 -2 -1043 -8z m1788 -1149 l0 -760 -760 0 -760 0 0 760 0 760
760 0 760 0 0 -760z"/>
<path d="M2932 2309 c-46 -14 -109 -80 -122 -128 -7 -27 -10 -353 -8 -1043 l3
-1003 24 -38 c13 -21 42 -50 64 -65 l41 -27 1026 0 1026 0 41 27 c22 15 51 44
64 65 l24 38 0 1026 0 1025 -27 41 c-15 22 -44 51 -65 64 l-38 24 -1010 2
c-620 1 -1023 -2 -1043 -8z m1788 -1149 l0 -760 -760 0 -760 0 0 760 0 760
760 0 760 0 0 -760z"/>
</g>
</svg>
