<?xml version="1.0" encoding="UTF-8"?>
<svg version="1.1" xmlns="http://www.w3.org/2000/svg" width="512" height="512">
<path d="M0 0 C0.92125243 -0.00226556 1.84250485 -0.00453111 2.79167402 -0.00686532 C5.86766982 -0.0131776 8.94362125 -0.01237776 12.0196228 -0.0115509 C14.22926388 -0.01454401 16.43890444 -0.0179469 18.64854431 -0.02172852 C24.64207882 -0.03055454 30.63559905 -0.03290597 36.62913942 -0.0335443 C41.63198668 -0.0344944 46.63483062 -0.03817364 51.6376766 -0.0417164 C62.76284184 -0.04939011 73.8880018 -0.05238549 85.01316912 -0.05171105 C86.01337297 -0.05165111 86.01337297 -0.05165111 87.03378296 -0.05158997 C87.70140122 -0.05154909 88.36901948 -0.0515082 89.0568686 -0.05146609 C99.88772574 -0.05105922 110.71854818 -0.06064089 121.54939528 -0.07472833 C132.67687388 -0.08908727 143.80433977 -0.09581564 154.93182886 -0.09513456 C161.17664099 -0.0948793 167.42141379 -0.09774585 173.6662178 -0.10831261 C179.53489814 -0.11797246 185.40350136 -0.11808731 191.27218437 -0.11079597 C193.42769292 -0.10974769 195.58320622 -0.11212741 197.73870659 -0.11815643 C200.67721426 -0.12584445 203.61545342 -0.12125278 206.55395508 -0.11352539 C207.83814156 -0.12124074 207.83814156 -0.12124074 209.1482712 -0.12911195 C214.29279416 -0.09914166 218.47149769 0.14147873 222.44320679 3.77360535 C222.9767981 4.41451111 223.5103894 5.05541687 224.06015015 5.71574402 C224.65714722 6.43197937 225.25414429 7.14821472 225.86923218 7.88615417 C228.7044285 11.46454975 231.41540047 15.11993849 234.0874939 18.82121277 C239.19279694 25.82371944 244.37942495 32.75476321 249.6499939 39.63371277 C255.29884342 47.01316992 260.85614294 54.45124134 266.34555054 61.94987488 C271.48860228 68.95740188 276.75415991 75.86849471 282.05819702 82.75480652 C295.77641789 100.63220021 295.77641789 100.63220021 295.77024841 108.22065735 C295.77231041 110.16845093 295.77231041 110.16845093 295.77441406 112.15559387 C295.77087467 113.60289024 295.76723986 115.05018638 295.76351929 116.4974823 C295.76323735 118.01499937 295.76339529 119.53251658 295.76396179 121.05003357 C295.76424949 125.17789454 295.75835716 129.30572663 295.75138783 133.43358088 C295.74514977 137.74442048 295.74455014 142.0552607 295.74336243 146.36610413 C295.74025045 154.53296599 295.73203886 162.69981451 295.72201294 170.86667049 C295.71084766 180.16278968 295.7053403 189.4589095 295.7003175 198.75503373 C295.68985614 217.88126765 295.67225927 237.00748914 295.6499939 256.13371277 C296.22541428 256.12585754 296.80083466 256.11800232 297.39369202 256.10990906 C300.02467346 256.0785463 302.65561542 256.05915702 305.28671265 256.03996277 C306.64451843 256.02111023 306.64451843 256.02111023 308.02975464 256.00187683 C315.74428875 255.95967286 321.69739017 256.71115169 327.6890564 261.89933777 C335.55605841 270.12245922 336.09376161 278.54990575 336.05404663 289.45939636 C336.05975802 290.79409351 336.06672525 292.12878578 336.07484436 293.46347046 C336.09270776 297.0689962 336.09162018 300.67427766 336.08590198 304.27983427 C336.0827997 307.29898453 336.08891419 310.31808857 336.09494072 313.33723223 C336.10896242 320.46506995 336.10744481 327.59278777 336.09603882 334.72062683 C336.08456424 342.05295747 336.09862731 349.38492205 336.12543529 356.71720445 C336.14765043 363.0317209 336.15421651 369.34612293 336.14835888 375.66067564 C336.14500141 379.4235706 336.14732292 383.18623109 336.16460991 386.94909286 C336.18016986 390.49024339 336.17602473 394.0308553 336.15730476 397.57198524 C336.15191022 399.4760588 336.1660646 401.38015707 336.18099976 403.28417969 C336.11038165 411.57759485 334.97867685 418.83299844 329.7906189 425.53605652 C329.16671265 426.04265808 328.5428064 426.54925964 327.8999939 427.07121277 C326.97960327 427.85818542 326.97960327 427.85818542 326.0406189 428.66105652 C317.80746541 433.73278669 309.79246569 433.56222896 300.43614197 433.52139282 C298.88059811 433.52556865 297.32505731 433.53104753 295.76952213 433.53771263 C291.50651815 433.55215328 287.24370773 433.54792686 282.98069322 433.54054582 C278.37869162 433.53581306 273.77673183 433.54832493 269.17474365 433.55856323 C260.16370585 433.57575419 251.15273776 433.57659066 242.14168782 433.57135033 C234.81738671 433.5673081 227.4931062 433.56875281 220.16880608 433.57409859 C218.60486293 433.57522122 218.60486293 433.57522122 217.00932498 433.57636653 C214.89119983 433.57789802 212.77307468 433.57943636 210.65494954 433.5809815 C190.7944189 433.59470751 170.93392766 433.58926804 151.07339793 433.57779629 C132.90577483 433.56786286 114.73825356 433.58080631 96.57064617 433.60473048 C77.9127041 433.62911512 59.25480946 433.63873097 40.59685177 433.63207775 C30.1231728 433.62858425 19.64957215 433.63082636 9.17590523 433.64832878 C0.26035458 433.66304276 -8.65506257 433.66369665 -17.57061058 433.64625787 C-22.1185882 433.63773907 -26.66632727 433.63561983 -31.21429253 433.65090942 C-35.37990259 433.66474016 -39.54506936 433.66001429 -43.71065367 433.64067019 C-45.21527405 433.63690492 -46.7199298 433.63984739 -48.22451871 433.65028184 C-57.9913529 433.71318418 -65.63181914 432.76822217 -73.6625061 426.88371277 C-80.49059067 419.89683553 -81.46870027 412.19911602 -81.490448 402.6839447 C-81.49341912 401.95491794 -81.49639024 401.22589118 -81.4994514 400.47477269 C-81.50809135 398.0430404 -81.50964264 395.61135761 -81.51113892 393.17961121 C-81.5157704 391.43142594 -81.52079551 389.68324169 -81.52618408 387.93505859 C-81.53927775 383.19315852 -81.54574705 378.45127258 -81.55019474 373.70935726 C-81.55313021 370.74398803 -81.5572359 367.77862261 -81.56169891 364.81325531 C-81.57536551 355.52704091 -81.58503641 346.2408353 -81.5889008 336.95461154 C-81.5933804 326.25022016 -81.61092728 315.54595654 -81.6399014 304.84160399 C-81.66154461 296.55689158 -81.67160649 288.27221505 -81.67294192 279.98747468 C-81.673988 275.04416374 -81.67985398 270.10097303 -81.69776154 265.15769196 C-81.71428802 260.50536017 -81.71637556 255.85323843 -81.70762253 251.20088768 C-81.70685462 249.49899163 -81.71116226 247.79708407 -81.72108078 246.09521675 C-81.78386474 234.64571939 -81.62894109 224.12376344 -74.09609985 214.82511902 C-68.48286884 209.3876939 -61.61390979 208.00039247 -54.0531311 208.03605652 C-52.84785767 208.03927917 -51.64258423 208.04250183 -50.40078735 208.04582214 C-49.14652954 208.05420105 -47.89227173 208.06257996 -46.6000061 208.07121277 C-44.69541626 208.07798035 -44.69541626 208.07798035 -42.75234985 208.08488464 C-39.61818774 208.09666721 -36.48412069 208.11311861 -33.3500061 208.13371277 C-33.35277148 207.1834147 -33.35553686 206.23311663 -33.35838604 205.25402164 C-33.42502128 182.11798774 -33.47430076 158.9819663 -33.50544262 135.84585667 C-33.52090335 124.65735015 -33.54197775 113.46890708 -33.57632446 102.28044128 C-33.60625105 92.52717338 -33.62558688 82.77395143 -33.63227159 73.02063888 C-33.6361783 67.85760969 -33.64534322 62.69471195 -33.66719627 57.53172493 C-33.68761286 52.66855129 -33.69382943 47.80556282 -33.68932915 42.94235039 C-33.69015203 41.16101957 -33.69608678 39.37968233 -33.70762253 37.59838867 C-33.84195672 15.77827117 -33.84195672 15.77827117 -26.3500061 7.13371277 C-17.87627826 0.82285952 -10.28933524 -0.01870938 0 0 Z " fill="#D6DEE2" transform="translate(128.35000610351563,38.86628723144531)"/>
<path d="M0 0 C1.69044434 0.00374634 1.69044434 0.00374634 3.41503906 0.00756836 C4.84041992 0.01667236 6.26580078 0.02577637 7.734375 0.03515625 C12.271875 0.05578125 16.809375 0.07640625 21.484375 0.09765625 C21.484375 16.26765625 21.484375 32.43765625 21.484375 49.09765625 C27.99072159 49.06554047 27.99072159 49.06554047 34.62850952 49.03277588 C74.40997977 48.83828385 114.19149804 48.66382954 153.97315177 48.51121266 C159.18766818 48.49118969 164.4021839 48.47099096 169.61669922 48.45068359 C170.65481006 48.44664374 171.69292089 48.44260388 172.76248963 48.4384416 C189.56876458 48.37262013 206.37494307 48.29256307 223.18112902 48.20723966 C240.42738017 48.11999916 257.67364624 48.04806934 274.92002165 47.99033523 C285.56092828 47.95423158 296.20164363 47.90620386 306.84242375 47.84289494 C314.14040978 47.8006188 321.43835746 47.77322242 328.73644857 47.75748095 C332.94632847 47.74796254 337.15591536 47.73192827 341.36567688 47.69820976 C345.2238105 47.66745279 349.08154054 47.6554845 352.93979163 47.65812847 C354.33164529 47.65582479 355.72350862 47.64676946 357.1152641 47.63007835 C366.29995526 47.52483391 374.41023106 48.17035135 381.88671875 53.95703125 C382.39332031 54.5809375 382.89992188 55.20484375 383.421875 55.84765625 C384.20884766 56.76804687 384.20884766 56.76804687 385.01171875 57.70703125 C389.78949987 65.46300485 389.92084016 72.51982119 389.88842773 81.42333984 C389.89413913 82.75803699 389.90110635 84.09272927 389.90922546 85.42741394 C389.92708886 89.03293968 389.92600128 92.63822114 389.92028308 96.24377775 C389.9171808 99.26292801 389.92329529 102.28203205 389.92932183 105.30117571 C389.94334352 112.42901344 389.94182592 119.55673125 389.93041992 126.68457031 C389.91894535 134.01690095 389.93300841 141.34886553 389.9598164 148.68114793 C389.98203153 154.99566438 389.98859761 161.31006641 389.98273998 167.62461913 C389.97938252 171.38751409 389.98170402 175.15017457 389.99899101 178.91303635 C390.01455096 182.45418687 390.01040583 185.99479879 389.99168587 189.53592873 C389.98629132 191.44000228 390.0004457 193.34410055 390.01538086 195.24812317 C389.94476275 203.54153833 388.81305796 210.79694192 383.625 217.5 C383.00109375 218.00660156 382.3771875 218.51320313 381.734375 219.03515625 C381.12078125 219.55980469 380.5071875 220.08445312 379.875 220.625 C371.64184651 225.69673017 363.6268468 225.52617244 354.27052307 225.4853363 C352.71497922 225.48951213 351.15943841 225.49499101 349.60390323 225.50165612 C345.34089925 225.51609676 341.07808884 225.51187034 336.81507432 225.5044893 C332.21307272 225.49975654 327.61111293 225.51226842 323.00912476 225.52250671 C313.99808695 225.53969767 304.98711887 225.54053414 295.97606892 225.53529381 C288.65176781 225.53125158 281.3274873 225.53269629 274.00318718 225.53804207 C272.43924404 225.5391647 272.43924404 225.5391647 270.84370608 225.54031001 C268.72558093 225.5418415 266.60745578 225.54337984 264.48933064 225.54492498 C244.62880001 225.55865099 224.76830877 225.55321152 204.90777903 225.54173977 C186.74015593 225.53180634 168.57263467 225.54474979 150.40502728 225.56867396 C131.7470852 225.5930586 113.08919056 225.60267445 94.43123287 225.59602123 C83.9575539 225.59252773 73.48395326 225.59476984 63.01028633 225.61227226 C54.09473569 225.62698624 45.17931853 225.62764013 36.26377053 225.61020135 C31.7157929 225.60168255 27.16805383 225.59956331 22.62008858 225.61485291 C18.45447852 225.62868364 14.28931175 225.62395777 10.12372743 225.60461367 C8.61910705 225.6008484 7.1144513 225.60379087 5.60986239 225.61422532 C-4.1569718 225.67712766 -11.79743804 224.73216565 -19.828125 218.84765625 C-26.65620957 211.86077901 -27.63431916 204.16305951 -27.65606689 194.64788818 C-27.65903802 193.91886142 -27.66200914 193.18983466 -27.6650703 192.43871617 C-27.67371025 190.00698388 -27.67526154 187.57530109 -27.67675781 185.14355469 C-27.6813893 183.39536943 -27.6864144 181.64718517 -27.69180298 179.89900208 C-27.70489664 175.157102 -27.71136594 170.41521606 -27.71581364 165.67330074 C-27.71874911 162.70793151 -27.7228548 159.7425661 -27.72731781 156.77719879 C-27.74098441 147.49098439 -27.75065531 138.20477878 -27.7545197 128.91855502 C-27.7589993 118.21416364 -27.77654618 107.50990002 -27.8055203 96.80554748 C-27.82716351 88.52083506 -27.83722538 80.23615853 -27.83856082 71.95141816 C-27.8396069 67.00810722 -27.84547287 62.06491651 -27.86338043 57.12163544 C-27.87990692 52.46930365 -27.88199446 47.81718191 -27.87324142 43.16483116 C-27.87247351 41.46293511 -27.87678115 39.76102755 -27.88669968 38.05916023 C-27.94948364 26.60966287 -27.79455998 16.08770692 -20.26171875 6.7890625 C-14.57373039 1.27922143 -7.65009517 -0.03477316 0 0 Z " fill="#1FB35B" transform="translate(74.515625,246.90234375)"/>
<path d="M0 0 C0.97594116 -0.00058411 1.95188232 -0.00116821 2.95739746 -0.00177002 C6.18257234 0.00101625 9.40682255 0.0321347 12.63183594 0.06347656 C14.86813858 0.070937 17.10444776 0.07663086 19.34075928 0.08062744 C25.22637993 0.09589919 31.11160568 0.13519474 36.99707031 0.17944336 C44.05882608 0.22755705 51.1207139 0.24592269 58.18258667 0.26925659 C68.91073608 0.30804432 79.638019 0.38468839 90.36621094 0.45410156 C90.36621094 24.21410156 90.36621094 47.97410156 90.36621094 72.45410156 C56.04621094 72.45410156 21.72621094 72.45410156 -13.63378906 72.45410156 C-13.71628906 61.31660156 -13.79878906 50.17910156 -13.88378906 38.70410156 C-13.92020508 35.19043945 -13.95662109 31.67677734 -13.99414062 28.05664062 C-14.01220703 23.75830078 -14.01220703 23.75830078 -14.01556396 21.74456787 C-14.02169706 20.34135869 -14.03574666 18.9381703 -14.05609131 17.53509521 C-14.08540705 15.40648925 -14.08941227 13.27916846 -14.08789062 11.15039062 C-14.09677307 9.95126038 -14.10565552 8.75213013 -14.11480713 7.5166626 C-13.63378906 4.45410156 -13.63378906 4.45410156 -12.20751953 2.06396484 C-8.25167492 -0.41040808 -4.57609659 -0.07147805 0 0 Z " fill="#20B35B" transform="translate(157.6337890625,103.5458984375)"/>
<path d="M0 0 C34.32 0 68.64 0 104 0 C104 23.76 104 47.52 104 72 C79.4935175 72.20054405 79.4935175 72.20054405 69.05273438 72.24414062 C61.92648726 72.27403791 54.80056115 72.30941783 47.67456055 72.37719727 C41.9298062 72.43149735 36.18539605 72.46141668 30.44040489 72.47438622 C28.24789701 72.48362958 26.05540812 72.50167971 23.86304665 72.52865028 C20.79345521 72.56491304 17.72528852 72.56994638 14.65551758 72.56762695 C13.74777084 72.58560333 12.84002411 72.60357971 11.9047699 72.62210083 C7.60044911 72.58687536 5.55741761 72.38437928 1.93200684 69.88439941 C-0.41516161 66.38018237 -0.60713352 64.47757968 -0.56762695 60.28198242 C-0.56822963 59.61726331 -0.5688323 58.95254419 -0.56945324 58.26768208 C-0.56573974 56.12940739 -0.52776261 53.99335006 -0.48828125 51.85546875 C-0.48324585 50.54340454 -0.47821045 49.23134033 -0.47302246 47.8795166 C-0.44687764 42.98195522 -0.37707075 38.08470549 -0.3125 33.1875 C-0.209375 22.235625 -0.10625 11.28375 0 0 Z " fill="#20B35C" transform="translate(144,192)"/>
<path d="M0 0 C33.99 0 67.98 0 103 0 C103.103125 10.951875 103.20625 21.90375 103.3125 33.1875 C103.35802002 36.63985107 103.40354004 40.09220215 103.45043945 43.64916992 C103.46504206 46.38459297 103.47778325 49.12002687 103.48828125 51.85546875 C103.50134811 52.56302811 103.51441498 53.27058746 103.52787781 53.99958801 C103.56461325 56.09430651 103.5695264 58.18698893 103.56762695 60.28198242 C103.57873001 61.46112717 103.58983307 62.64027191 103.60127258 63.85514832 C102.78119938 68.14439861 101.58908112 69.52043511 98 72 C94.80134763 72.68718606 91.69706667 72.6328734 88.4362793 72.56762695 C87.47969925 72.56835709 86.5231192 72.56908722 85.53755188 72.56983948 C82.38252637 72.56636203 79.22898566 72.52749234 76.07421875 72.48828125 C73.88418891 72.47895371 71.69414862 72.47183732 69.50410461 72.46684265 C63.74497584 72.44776839 57.98647936 72.39866304 52.2276001 72.34332275 C45.3152142 72.28313836 38.40261666 72.26021616 31.49004364 72.23105621 C20.99292291 72.18259922 10.49718904 72.08678551 0 72 C0 48.24 0 24.48 0 0 Z " fill="#1FB35B" transform="translate(264,192)"/>
<path d="M0 0 C26.4 0 52.8 0 80 0 C80.495 11.385 80.495 11.385 81 23 C83.80310164 29.70009661 86.42150562 33.36346474 92.58203125 37.0625 C96.2461836 38.48317296 100.16365638 39.1474792 104 40 C104 50.56 104 61.12 104 72 C69.68 72 35.36 72 0 72 C0 48.24 0 24.48 0 0 Z " fill="#20B35B" transform="translate(264,104)"/>
<path d="M0 0 C4.07352066 0.68851206 5.7649275 1.28478753 8.41015625 4.51953125 C9.00715332 5.24479004 9.60415039 5.97004883 10.21923828 6.71728516 C13.0323989 10.32340687 15.76044567 13.97935407 18.4375 17.6875 C23.54280305 24.69000667 28.72943105 31.62105044 34 38.5 C39.64884953 45.87945715 45.20614904 53.31752857 50.69555664 60.81616211 C55.83860838 67.82368911 61.10416602 74.73478194 66.40820312 81.62109375 C69.62518618 85.81342111 72.80551166 90.03229566 75.91015625 94.30859375 C76.48000244 95.08904053 77.04984863 95.8694873 77.63696289 96.67358398 C79.09439979 99.16112047 79.50391197 101.18404119 80 104 C72.08900553 104.11641113 64.1783754 104.20497411 56.26673317 104.25906086 C52.59206274 104.28503438 48.91798295 104.32020304 45.24365234 104.37719727 C41.69039575 104.43196167 38.13770327 104.46151236 34.58405685 104.47438622 C32.58446372 104.48797276 30.58509411 104.52693404 28.58584595 104.56648254 C20.71791791 104.56887778 14.47865363 103.72960035 8 99 C5.66336778 96.49099146 3.73806855 93.95354216 2 91 C1.65083527 90.47355896 1.30167053 89.94711792 0.94192505 89.40472412 C-0.45274793 85.84413959 -0.2609502 82.32703505 -0.22705078 78.55957031 C-0.22734283 77.71042557 -0.22763489 76.86128082 -0.22793579 75.98640442 C-0.22654398 73.18354017 -0.21098976 70.38094273 -0.1953125 67.578125 C-0.19158184 65.63328191 -0.18873512 63.68843695 -0.18673706 61.74359131 C-0.17910477 56.62749025 -0.1594597 51.51150293 -0.1373291 46.39544678 C-0.116862 41.17380309 -0.10773349 35.952141 -0.09765625 30.73046875 C-0.07621348 20.48692922 -0.04208235 10.24347407 0 0 Z " fill="#AFBDC7" transform="translate(344,40)"/>
<path d="M0 0 C2.10535153 -0.01189601 4.20776549 -0.06114326 6.3125 -0.11157227 C15.58827351 -0.22402714 20.98751002 1.01047945 27.765625 7.30444336 C28.21164062 7.8600293 28.65765625 8.41561523 29.1171875 8.98803711 C29.57867187 9.54620117 30.04015625 10.10436523 30.515625 10.67944336 C33.69912304 15.21136573 34.10730123 18.99621401 34.1171875 24.48803711 C34.14167969 25.20797852 34.16617188 25.92791992 34.19140625 26.66967773 C34.22056499 31.90367076 34.22056499 31.90367076 31.9375 34.39428711 C28.68172536 35.92369014 26.28701366 35.86864038 22.7421875 35.42553711 C20.3671875 34.05053711 20.3671875 34.05053711 18.7421875 31.42553711 C18.39648189 28.88755205 18.24217202 26.4242681 18.2109375 23.86303711 C17.57612459 20.56200999 16.33990986 19.51977216 13.7421875 17.42553711 C10.99850976 16.83008897 10.99850976 16.83008897 7.98828125 16.92944336 C6.88677734 16.92879883 5.78527344 16.9281543 4.65039062 16.92749023 C3.50505859 16.9474707 2.35972656 16.96745117 1.1796875 16.98803711 C0.03048828 16.98094727 -1.11871094 16.97385742 -2.30273438 16.96655273 C-8.03480403 16.6810699 -8.03480403 16.6810699 -13.08203125 18.80639648 C-14.7019036 21.03708449 -14.69119876 22.62739921 -14.6953125 25.36303711 C-14.71464844 26.21768555 -14.73398437 27.07233398 -14.75390625 27.95288086 C-14.08890618 31.26740874 -12.81860036 32.24237451 -10.2578125 34.42553711 C-7.35989138 35.86346086 -7.35989138 35.86346086 -4.09375 37.01147461 C-2.88847656 37.46780273 -1.68320312 37.92413086 -0.44140625 38.39428711 C0.8276938 38.8642033 2.09722825 39.33294792 3.3671875 39.80053711 C26.95089193 48.52428985 26.95089193 48.52428985 32.7421875 58.42553711 C35.05920808 65.37659884 35.27915726 76.42755402 32.0546875 83.17553711 C28.25324851 88.51810002 24.07482315 93.22913689 17.7421875 95.42553711 C13.28930192 95.91766564 8.88089242 95.95950628 4.40893555 95.89208984 C2.3128307 95.86314954 0.21926582 95.87149844 -1.87695312 95.88452148 C-10.09711017 95.87369744 -17.15097763 95.8478995 -23.71875 90.37475586 C-24.35039062 89.62838867 -24.98203125 88.88202148 -25.6328125 88.11303711 C-26.27992188 87.3744043 -26.92703125 86.63577148 -27.59375 85.87475586 C-30.84260471 81.09299083 -31.56602011 76.50460755 -31.6328125 70.80053711 C-31.66117187 69.69452148 -31.68953125 68.58850586 -31.71875 67.44897461 C-31.2578125 64.42553711 -31.2578125 64.42553711 -29.484375 62.06225586 C-26.5087852 59.87493634 -24.75128671 59.77125936 -21.16015625 59.99194336 C-19.2578125 60.42553711 -19.2578125 60.42553711 -16.8203125 62.30053711 C-14.96176462 66.01763287 -14.73519807 69.00673087 -14.62890625 73.12084961 C-14.16698419 75.98962871 -13.55895261 76.68462382 -11.2578125 78.42553711 C-7.14262871 79.07201354 -2.98051484 78.88870297 1.1796875 78.86303711 C2.32501953 78.88301758 3.47035156 78.90299805 4.65039062 78.92358398 C6.30264648 78.92261719 6.30264648 78.92261719 7.98828125 78.92163086 C8.99560303 78.92348389 10.0029248 78.92533691 11.04077148 78.92724609 C14.4363926 78.29660882 15.61587526 77.08948396 17.7421875 74.42553711 C18.32862328 72.44515685 18.32862328 72.44515685 18.1796875 70.42553711 C18.17775391 69.43553711 18.17775391 69.43553711 18.17578125 68.42553711 C17.58724873 65.71086456 16.62977753 64.4823661 14.7421875 62.42553711 C11.73222 60.87452143 11.73222 60.87452143 8.203125 59.62084961 C7.56283356 59.3743869 6.92254211 59.12792419 6.2628479 58.87399292 C4.21855659 58.08772225 2.16882134 57.31742635 0.1171875 56.55053711 C-24.16908417 47.45696777 -24.16908417 47.45696777 -30.0078125 35.98803711 C-32.42575144 28.94796076 -32.77993864 19.8784847 -29.7578125 12.98803711 C-22.70605054 1.36013175 -12.59653988 0.03365711 0 0 Z " fill="#D4DEE0" transform="translate(288.2578125,335.574462890625)"/>
<path d="M0 0 C3.96878853 0.84536768 6.03444567 3.74430681 8.53271484 6.75878906 C9.36838989 7.71241333 9.36838989 7.71241333 10.22094727 8.68530273 C11.87270327 10.58454848 13.48891626 12.50853204 15.09521484 14.44628906 C15.93826172 15.45691406 16.78130859 16.46753906 17.64990234 17.50878906 C19.11773786 19.29660256 20.57661169 21.0918248 22.02490234 22.89550781 C27.30106126 30.05118128 27.30106126 30.05118128 34.09521484 35.44628906 C34.32080078 34.90101563 34.54638672 34.35574219 34.77880859 33.79394531 C36.48661407 30.74827442 38.76559704 28.39288383 41.15771484 25.88378906 C44.8597712 21.93411776 48.39676844 17.92577264 51.78271484 13.69628906 C62.23797857 0.85551061 62.23797857 0.85551061 67.78271484 -0.36621094 C72.02315572 0.6738972 73.63725836 1.83616548 76.09521484 5.44628906 C75.93699909 11.10909457 74.5397784 13.72737635 70.59521484 17.69628906 C67.10958137 21.32035905 63.79444946 24.95294441 60.65771484 28.88378906 C58.22436365 31.92438589 55.74564304 34.85483021 53.05224609 37.66503906 C52.54040771 38.20201416 52.02856934 38.73898926 51.5012207 39.29223633 C50.49857447 40.33453434 49.48534439 41.36677744 48.46069336 42.38745117 C45.86343154 45.00121834 45.86343154 45.00121834 44.97802734 48.44628906 C46.60383256 51.35682149 48.79127367 53.6338862 51.09521484 56.00878906 C55.5901889 60.76688355 59.79822622 65.66359935 63.88427734 70.78222656 C66.17601713 73.54365153 68.61375776 76.10524081 71.09521484 78.69628906 C75.66912462 83.75968743 75.66912462 83.75968743 76.47021484 87.25878906 C76.09521484 90.44628906 76.09521484 90.44628906 74.09521484 93.38378906 C71.09521484 95.44628906 71.09521484 95.44628906 67.84521484 96.32128906 C59.28821908 94.32465672 53.8292259 85.01523111 48.57958984 78.43457031 C45.19030687 74.35783844 41.57278265 70.51165106 37.90454102 66.68554688 C34.09521484 62.65746486 34.09521484 62.65746486 34.09521484 60.44628906 C25.25664009 69.18665743 16.79659494 78.28184437 9.09521484 88.04394531 C3.2322952 95.08631949 3.2322952 95.08631949 -0.00244141 96.11035156 C-3.68756803 96.03708861 -5.57425409 95.72724047 -8.40478516 93.32128906 C-10.20497992 89.87091576 -10.41625599 88.30091924 -9.90478516 84.44628906 C-8.18561521 81.97978235 -6.55452558 79.94010207 -4.52978516 77.75878906 C-3.98539795 77.14865967 -3.44101074 76.53853027 -2.88012695 75.90991211 C-1.23650057 74.07458124 0.42613138 72.25846572 2.09521484 70.44628906 C2.99805087 69.45715484 3.90043304 68.46760604 4.80224609 67.47753906 C6.42968753 65.69376073 8.05980943 63.91242348 9.69287109 62.13378906 C13.65419096 57.70226374 17.38011289 53.08567967 21.09521484 48.44628906 C18.36216603 44.13329594 15.43076506 40.48518994 11.90771484 36.75878906 C7.4333441 31.97185103 3.2172358 27.03717954 -0.89306641 21.93066406 C-2.69109502 19.71018601 -4.52985058 17.5392958 -6.40478516 15.38378906 C-9.80198142 11.39208346 -9.80198142 11.39208346 -10.21728516 7.57128906 C-9.90478516 4.44628906 -9.90478516 4.44628906 -8.40478516 2.07128906 C-5.54184327 0.21037684 -3.39260201 -0.07855741 0 0 Z " fill="#D5DEE0" transform="translate(102.90478515625,335.5537109375)"/>
<path d="M0 0 C3.66545923 2.55770177 6.32400577 5.42863938 9.0625 8.9375 C13.08857704 13.96841034 17.33696763 18.71458844 21.75024414 23.40795898 C24.96839166 26.83917156 28.01866814 30.36038136 31 34 C36.0038082 30.27921954 39.61124811 25.91182228 43.4921875 21.05078125 C47.00146593 16.78170578 50.74851736 12.76421374 54.51953125 8.7265625 C56.14206338 6.94305474 57.70629859 5.10426786 59.19921875 3.2109375 C61 1 61 1 63 0 C66.83614957 -0.35519903 69.14629634 -0.54724594 72.4375 1.5625 C74.58901257 4.9188596 74.36407781 7.06210097 74 11 C72.3828125 13.703125 72.3828125 13.703125 70.125 16.25 C68.89136719 17.66539062 68.89136719 17.66539062 67.6328125 19.109375 C66.76398438 20.06328125 65.89515625 21.0171875 65 22 C63.75863281 23.36898438 63.75863281 23.36898438 62.4921875 24.765625 C60.83089726 26.58835724 59.16552514 28.4073775 57.49609375 30.22265625 C52.38366894 35.91112893 47.55014865 41.85230699 43 48 C43.68964844 48.73863281 44.37929688 49.47726562 45.08984375 50.23828125 C50.51772808 56.08601267 55.72165976 62.02814542 60.72265625 68.25 C64.01743542 72.22860126 67.5146455 76.00263567 71.03125 79.78515625 C73.55730235 82.62696515 73.95668148 83.53215995 74.3125 87.375 C74 91 74 91 72.4375 93.4375 C69.01685857 95.63021887 66.99048721 95.63007693 63 95 C60.66796875 92.87890625 60.66796875 92.87890625 58 90 C56.99505278 88.9450637 55.98983254 87.89038743 54.984375 86.8359375 C53.90441849 85.68400601 52.82635772 84.53029489 51.75 83.375 C51.18152344 82.76543457 50.61304688 82.15586914 50.02734375 81.52783203 C45.79255762 76.94771487 41.83183909 72.22919945 38 67.3046875 C35.87086973 64.85119754 33.58986903 62.95139437 31 61 C24.83611878 67.60168961 18.88077682 74.27910009 13.20703125 81.3125 C3.33662145 93.33168927 3.33662145 93.33168927 0 95 C-3.83614957 95.35519903 -6.14629634 95.54724594 -9.4375 93.4375 C-11.58755327 90.0834169 -11.36000416 87.9349292 -11 84 C-9.41796875 81.33203125 -9.41796875 81.33203125 -7.1875 78.8125 C-5.95580078 77.39904297 -5.95580078 77.39904297 -4.69921875 75.95703125 C-3.80225445 74.96882799 -2.902463 73.9831842 -2 73 C-1.55092285 72.50806152 -1.1018457 72.01612305 -0.63916016 71.50927734 C1.19792516 69.50059974 3.0392875 67.49611462 4.89160156 65.50146484 C10.2947644 59.66231741 15.58298909 53.62551636 20 47 C19.38253906 46.33355469 18.76507813 45.66710937 18.12890625 44.98046875 C13.80243461 40.27205593 9.57315377 35.5467545 5.5625 30.5625 C1.74046626 25.81743486 -2.2916151 21.32357308 -6.45874023 16.88305664 C-9.48598445 13.64180346 -10.89688817 12.11360778 -11.3125 7.625 C-11 4 -11 4 -9.4375 1.5625 C-6.04295632 -0.61348954 -3.9634351 -0.55627159 0 0 Z " fill="#D5DEE0" transform="translate(344,336)"/>
<path d="M0 0 C3.41925802 2.64045151 4.84255199 4.10690757 5.60127258 8.41059875 C5.59016953 9.71409775 5.57906647 11.01759674 5.56762695 12.3605957 C5.56835709 13.08309006 5.56908722 13.80558441 5.56983948 14.54997253 C5.56637001 16.92601947 5.52754413 19.30007904 5.48828125 21.67578125 C5.47895072 23.32772246 5.47183574 24.97967755 5.46684265 26.63163757 C5.44779141 30.9704538 5.39870766 35.30842735 5.34332275 39.64691162 C5.29208929 44.07764284 5.26931992 48.5085108 5.24414062 52.93945312 C5.19058628 61.62668793 5.10529726 70.31323901 5 79 C6.30670654 78.97905273 7.61341309 78.95810547 8.9597168 78.93652344 C13.81442274 78.86404447 18.66908098 78.81817125 23.52416992 78.78027344 C25.62418667 78.76017603 27.72414758 78.73289334 29.82397461 78.69824219 C32.84502958 78.6496423 35.86534377 78.62701238 38.88671875 78.609375 C40.29167854 78.57840729 40.29167854 78.57840729 41.72502136 78.54681396 C45.95217871 78.54536357 48.35970956 78.62157462 52.06176758 80.80957031 C54.7906582 83.89353638 55.14348967 85.91054442 55 90 C53.34673485 92.5992043 52.62827918 93.57396346 50 95 C45.73094193 95.74699729 41.50797759 95.67635012 37.18359375 95.62890625 C35.93498062 95.63131821 34.68636749 95.63373016 33.3999176 95.63621521 C30.7622323 95.63523626 28.12682001 95.62443404 25.48950195 95.59692383 C22.11421798 95.56280433 18.7404533 95.568875 15.36509609 95.5875864 C12.13784037 95.60071031 8.91081663 95.58243966 5.68359375 95.56640625 C4.47311874 95.57136612 3.26264374 95.57632599 2.01548767 95.58143616 C0.89074539 95.56559982 -0.23399689 95.54976349 -1.39282227 95.53344727 C-2.38145767 95.52724869 -3.37009308 95.52105011 -4.38868713 95.5146637 C-7.89487232 94.8236296 -8.99656975 93.96627638 -11 91 C-11.39457777 88.08149003 -11.54737311 85.54056529 -11.51757812 82.62304688 C-11.5245874 81.7803273 -11.53159668 80.93760773 -11.53881836 80.0693512 C-11.55641445 77.28548164 -11.54477009 74.50262978 -11.53125 71.71875 C-11.53394445 69.78348597 -11.53782649 67.84822326 -11.54284668 65.91296387 C-11.54874391 61.85769762 -11.5401715 57.80278386 -11.52148438 53.74755859 C-11.49869474 48.54857068 -11.51181661 43.35040871 -11.53577423 38.15145111 C-11.5502261 34.15543389 -11.54562902 30.15961259 -11.53526306 26.16358948 C-11.53259409 24.24662681 -11.53587152 22.32964638 -11.54518127 20.41270447 C-11.55533682 17.73364117 -11.53986027 15.05591666 -11.51757812 12.37695312 C-11.52567505 11.58410416 -11.53377197 10.79125519 -11.54211426 9.97438049 C-11.48787249 6.45542164 -11.28504671 4.39026645 -9.18249512 1.51159668 C-5.93560492 -0.7372003 -3.85484181 -0.60865923 0 0 Z " fill="#D4DEE0" transform="translate(198,336)"/>
<path d="M0 0 C4.475625 0.04125 8.95125 0.0825 13.5625 0.125 C13.5625 16.295 13.5625 32.465 13.5625 49.125 C8.98375 49.228125 4.405 49.33125 -0.3125 49.4375 C-1.73546387 49.48302002 -3.15842773 49.52854004 -4.62451172 49.57543945 C-13.56311397 49.67228577 -20.41426695 48.47159949 -27.30615234 42.50805664 C-32.33380747 37.47469753 -35.42572765 30.39836379 -35.4453125 23.2890625 C-34.3328647 15.18408567 -30.77957864 8.89821419 -24.5 3.6875 C-16.41881685 -0.43555263 -8.93375442 -0.1163504 0 0 Z " fill="#198043" transform="translate(82.4375,246.875)"/>
</svg>
