<?xml version="1.0" standalone="no"?>
<!DOCTYPE svg PUBLIC "-//W3C//DTD SVG 20010904//EN"
 "http://www.w3.org/TR/2001/REC-SVG-20010904/DTD/svg10.dtd">
<svg version="1.0" xmlns="http://www.w3.org/2000/svg"
 width="512.000000pt" height="512.000000pt" viewBox="0 0 512.000000 512.000000"
 preserveAspectRatio="xMidYMid meet">

<g transform="translate(0.000000,512.000000) scale(0.100000,-0.100000)"
fill="#000000" stroke="none">
<path d="M1525 4311 c-125 -32 -221 -137 -240 -264 l-7 -46 -348 -3 c-334 -3
-350 -4 -376 -24 -53 -39 -69 -71 -69 -134 0 -63 16 -95 69 -134 26 -20 42
-21 376 -24 l348 -3 7 -47 c8 -59 59 -155 98 -188 16 -14 53 -37 81 -52 l51
-27 245 0 245 0 63 34 c35 19 74 48 88 64 38 45 71 117 79 170 l7 47 1148 2
c1142 3 1149 3 1176 24 53 39 69 71 69 134 0 63 -16 95 -69 134 -27 21 -34 21
-1176 24 l-1148 2 -7 47 c-8 53 -41 125 -79 170 -14 16 -53 45 -88 64 l-63 34
-225 2 c-124 1 -238 -2 -255 -6z m395 -471 l0 -160 -160 0 -160 0 0 160 0 160
160 0 160 0 0 -160z"/>
<path d="M2805 3031 c-125 -32 -221 -137 -240 -264 l-7 -47 -988 -2 c-981 -3
-989 -3 -1016 -24 -53 -39 -69 -71 -69 -134 0 -63 16 -95 69 -134 27 -21 35
-21 1016 -24 l988 -2 7 -48 c8 -59 59 -155 98 -188 16 -14 53 -37 81 -52 l51
-27 245 0 245 0 63 34 c35 19 74 48 88 64 38 45 71 117 79 170 l7 46 508 3
c496 3 509 4 536 24 53 39 69 71 69 134 0 63 -16 95 -69 134 -27 20 -40 21
-536 24 l-508 3 -7 46 c-8 53 -41 125 -79 170 -14 16 -53 45 -88 64 l-63 34
-225 2 c-124 1 -238 -2 -255 -6z m395 -471 l0 -160 -160 0 -160 0 0 160 0 160
160 0 160 0 0 -160z"/>
<path d="M1525 1751 c-125 -32 -221 -137 -240 -264 l-7 -46 -348 -3 c-334 -3
-350 -4 -376 -24 -53 -39 -69 -71 -69 -134 0 -63 16 -95 69 -134 26 -20 42
-21 376 -24 l348 -3 7 -47 c8 -59 59 -155 98 -188 16 -14 53 -37 81 -52 l51
-27 245 0 245 0 63 34 c35 19 74 48 88 64 38 45 71 117 79 170 l7 47 1148 2
c1142 3 1149 3 1176 24 53 39 69 71 69 134 0 63 -16 95 -69 134 -27 21 -34 21
-1176 24 l-1148 2 -7 47 c-8 53 -41 125 -79 170 -14 16 -53 45 -88 64 l-63 34
-225 2 c-124 1 -238 -2 -255 -6z m395 -471 l0 -160 -160 0 -160 0 0 160 0 160
160 0 160 0 0 -160z"/>
</g>
</svg>
