<?xml version="1.0" standalone="no"?>
<!DOCTYPE svg PUBLIC "-//W3C//DTD SVG 20010904//EN"
 "http://www.w3.org/TR/2001/REC-SVG-20010904/DTD/svg10.dtd">
<svg version="1.0" xmlns="http://www.w3.org/2000/svg"
 width="512.000000pt" height="512.000000pt" viewBox="0 0 512.000000 512.000000"
 preserveAspectRatio="xMidYMid meet">

<g transform="translate(0.000000,512.000000) scale(0.100000,-0.100000)"
fill="#000000" stroke="none">
<path d="M1360 5107 c-52 -17 -133 -102 -148 -157 -10 -34 -12 -196 -10 -655
l3 -610 1355 0 1355 0 3 610 c2 445 -1 622 -9 653 -17 61 -87 136 -146 156
-42 14 -171 16 -1207 15 -816 -1 -1171 -4 -1196 -12z"/>
<path d="M815 4466 c-41 -18 -83 -69 -90 -109 -3 -18 -4 -176 -3 -352 l3 -320
155 0 155 0 0 395 0 395 -95 2 c-62 2 -105 -2 -125 -11z"/>
<path d="M4085 4468 c-3 -7 -4 -186 -3 -398 l3 -385 155 0 155 0 0 347 c0 334
-1 348 -21 374 -44 59 -67 69 -180 72 -80 3 -105 1 -109 -10z"/>
<path d="M306 3509 c-62 -15 -153 -68 -197 -116 -22 -24 -55 -74 -72 -111
l-32 -67 0 -975 0 -975 32 -67 c44 -93 100 -151 191 -196 l76 -37 365 0 366 0
0 315 0 315 -52 3 c-93 5 -136 80 -78 137 l24 25 1629 0 1629 0 27 -25 c31
-29 34 -72 7 -106 -15 -18 -32 -25 -77 -29 l-59 -5 0 -315 0 -315 366 0 365 0
76 37 c91 45 147 103 191 196 l32 67 0 975 0 975 -32 67 c-44 93 -100 151
-191 196 l-76 37 -2235 2 c-1327 0 -2252 -3 -2275 -8z m3688 -321 c86 -26 166
-136 166 -228 0 -124 -116 -240 -240 -240 -63 0 -114 23 -165 75 -102 101
-102 229 0 330 70 71 145 90 239 63z m640 0 c86 -26 166 -136 166 -228 0 -124
-116 -240 -240 -240 -63 0 -114 23 -165 75 -102 101 -102 229 0 330 70 71 145
90 239 63z"/>
<path d="M3865 3015 c-16 -15 -25 -36 -25 -55 0 -19 9 -40 25 -55 15 -16 36
-25 55 -25 19 0 40 9 55 25 16 15 25 36 25 55 0 19 -9 40 -25 55 -15 16 -36
25 -55 25 -19 0 -40 -9 -55 -25z"/>
<path d="M4505 3015 c-16 -15 -25 -36 -25 -55 0 -19 9 -40 25 -55 15 -16 36
-25 55 -25 19 0 40 9 55 25 16 15 25 36 25 55 0 19 -9 40 -25 55 -15 16 -36
25 -55 25 -19 0 -40 -9 -55 -25z"/>
<path d="M1207 1593 c-4 -3 -7 -317 -7 -696 0 -512 3 -700 12 -731 16 -55 99
-138 154 -154 31 -9 319 -12 1196 -12 1029 0 1160 2 1201 16 59 20 129 95 146
156 9 32 11 227 9 733 l-3 690 -1351 3 c-743 1 -1354 -1 -1357 -5z m2288 -338
c33 -32 33 -78 0 -110 l-24 -25 -871 0 -871 0 -24 25 c-16 15 -25 36 -25 55 0
19 9 40 25 55 l24 25 871 0 871 0 24 -25z m0 -400 c33 -32 33 -78 0 -110 l-24
-25 -871 0 -871 0 -24 25 c-16 15 -25 36 -25 55 0 19 9 40 25 55 l24 25 871 0
871 0 24 -25z m0 -400 c33 -32 33 -78 0 -110 l-24 -25 -871 0 -871 0 -24 25
c-16 15 -25 36 -25 55 0 19 9 40 25 55 l24 25 871 0 871 0 24 -25z"/>
</g>
</svg>
