<?xml version="1.0" standalone="no"?>
<!DOCTYPE svg PUBLIC "-//W3C//DTD SVG 20010904//EN"
 "http://www.w3.org/TR/2001/REC-SVG-20010904/DTD/svg10.dtd">
<svg version="1.0" xmlns="http://www.w3.org/2000/svg"
 width="512.000000pt" height="512.000000pt" viewBox="0 0 512.000000 512.000000"
 preserveAspectRatio="xMidYMid meet">

<g transform="translate(0.000000,512.000000) scale(0.100000,-0.100000)"
fill="#000000" stroke="none">
<path d="M2210 5105 c-180 -40 -329 -134 -424 -268 -121 -169 -134 -323 -46
-537 21 -52 58 -140 80 -195 78 -190 106 -351 117 -691 l6 -201 -27 -59 c-33
-72 -84 -127 -151 -162 l-50 -27 -330 -6 c-259 -5 -342 -10 -385 -22 -221 -65
-400 -246 -455 -462 -20 -79 -30 -330 -17 -423 11 -77 38 -140 77 -182 l24
-25 3 -670 c3 -615 5 -674 22 -725 56 -170 170 -306 317 -379 153 -75 33 -71
1882 -71 1795 0 1699 -3 1728 51 14 27 14 81 0 108 -16 29 -63 51 -109 51
-175 0 -346 152 -382 340 -6 32 -10 296 -10 667 l0 615 26 30 c14 17 37 54 52
82 27 51 27 51 27 271 0 203 -2 225 -23 290 -56 169 -174 307 -327 383 -119
59 -151 64 -505 71 -309 6 -327 7 -370 28 -74 37 -117 79 -152 151 l-33 67 2
140 c7 409 42 593 164 866 64 145 89 235 89 324 0 150 -45 250 -170 376 -135
136 -277 197 -480 205 -70 2 -127 -1 -170 -11z m273 -210 c139 -36 264 -132
314 -241 22 -49 25 -66 21 -133 -4 -66 -14 -97 -71 -231 -133 -313 -155 -417
-176 -836 -11 -197 -6 -270 24 -355 51 -143 175 -267 321 -321 55 -20 84 -22
389 -28 304 -6 335 -8 388 -27 115 -43 214 -139 258 -250 21 -52 24 -78 27
-246 l4 -187 -35 -35 -35 -35 -1548 0 c-1518 0 -1550 0 -1581 20 -23 14 -35
31 -44 62 -16 60 -6 327 15 394 37 118 141 227 264 275 54 22 76 23 392 29
317 6 338 7 392 29 169 66 290 202 334 372 14 54 16 95 10 258 -14 422 -44
571 -176 879 -70 165 -85 217 -77 283 16 137 170 283 340 325 72 17 182 17
250 -1z m1397 -3751 c0 -531 2 -625 16 -678 20 -78 57 -155 101 -212 l34 -46
-188 4 -189 3 -76 38 c-88 43 -152 107 -195 195 l-28 57 -5 312 -5 312 -29 30
c-24 25 -38 31 -74 31 -35 0 -49 -6 -73 -29 l-29 -29 0 -295 c0 -368 13 -435
116 -580 l34 -47 -254 0 c-226 0 -261 2 -319 20 -113 35 -215 129 -259 240
-21 51 -23 76 -28 363 l-5 309 -28 24 c-61 53 -158 19 -173 -61 -3 -18 -4
-158 -1 -312 3 -223 8 -290 21 -337 21 -72 65 -162 100 -203 14 -17 26 -34 26
-37 0 -3 -100 -6 -223 -6 -289 0 -339 13 -450 119 -56 53 -99 132 -116 209 -6
32 -11 161 -11 323 l0 271 -29 29 c-24 23 -38 29 -73 29 -36 0 -50 -6 -74 -31
l-29 -30 1 -307 c0 -307 0 -307 27 -389 15 -45 48 -112 72 -149 25 -37 45 -68
45 -70 0 -2 -71 -4 -158 -4 -115 0 -173 4 -213 16 -146 43 -260 170 -289 324
-6 31 -10 284 -10 631 l0 579 1520 0 1520 0 0 -616z"/>
</g>
</svg>
