<?xml version="1.0" standalone="no"?>
<!DOCTYPE svg PUBLIC "-//W3C//DTD SVG 20010904//EN"
 "http://www.w3.org/TR/2001/REC-SVG-20010904/DTD/svg10.dtd">
<svg version="1.0" xmlns="http://www.w3.org/2000/svg"
 width="512.000000pt" height="512.000000pt" viewBox="0 0 512.000000 512.000000"
 preserveAspectRatio="xMidYMid meet">

<g transform="translate(0.000000,512.000000) scale(0.100000,-0.100000)"
fill="#000000" stroke="none">
<path d="M2507 4663 c-33 -14 -81 -75 -387 -504 -192 -269 -356 -502 -365
-519 -30 -58 -8 -134 50 -170 26 -16 50 -20 119 -20 l86 0 0 -267 0 -268 -727
-365 c-549 -275 -732 -372 -748 -393 -19 -27 -20 -43 -20 -347 0 -304 1 -320
20 -347 16 -21 257 -147 1015 -526 841 -422 998 -498 1024 -493 42 7 1945 958
1984 991 17 15 37 43 42 63 7 24 10 141 8 334 -3 279 -4 298 -23 325 -15 21
-157 97 -550 295 -292 146 -545 269 -563 273 -70 13 -152 -59 -152 -135 0 -81
10 -87 445 -306 l400 -202 -803 -401 -802 -401 -802 401 -803 401 525 263 525
263 5 -212 c6 -237 12 -261 80 -297 32 -18 64 -19 470 -19 406 0 438 1 470 19
19 10 44 34 55 52 19 33 20 55 23 667 l3 632 86 0 c68 0 92 4 118 20 58 36 80
112 50 170 -9 17 -173 250 -365 519 -319 446 -353 490 -390 505 -49 19 -55 19
-103 -1z m258 -644 c110 -154 201 -284 203 -289 1 -4 -10 -10 -26 -13 -43 -9
-90 -53 -102 -95 -6 -23 -10 -263 -10 -649 l0 -613 -270 0 -270 0 0 613 c0
386 -4 626 -10 649 -12 42 -59 86 -102 95 -16 3 -27 9 -26 13 5 15 403 570
408 570 3 0 95 -127 205 -281z m-205 -3029 c20 0 332 151 900 435 l870 435 0
-120 0 -120 -885 -442 -885 -443 -885 443 -885 442 0 120 0 120 870 -435 c568
-284 880 -435 900 -435z"/>
</g>
</svg>
