<?xml version="1.0" standalone="no"?>
<!DOCTYPE svg PUBLIC "-//W3C//DTD SVG 20010904//EN"
 "http://www.w3.org/TR/2001/REC-SVG-20010904/DTD/svg10.dtd">
<svg version="1.0" xmlns="http://www.w3.org/2000/svg"
 width="512.000000pt" height="512.000000pt" viewBox="0 0 512.000000 512.000000"
 preserveAspectRatio="xMidYMid meet">

<g transform="translate(0.000000,512.000000) scale(0.100000,-0.100000)"
fill="#000000" stroke="none">
<path d="M2281 4946 c-47 -17 -108 -71 -130 -114 -10 -20 -30 -80 -45 -132
-39 -139 -34 -133 -123 -165 -43 -15 -104 -40 -135 -56 -32 -16 -63 -29 -70
-29 -8 0 -67 29 -133 65 -115 62 -142 70 -215 66 -69 -5 -96 -24 -274 -200
-179 -176 -212 -220 -216 -286 -5 -79 2 -103 65 -220 36 -66 65 -125 65 -133
0 -7 -13 -38 -29 -70 -16 -31 -41 -92 -56 -135 -32 -89 -26 -84 -165 -123 -52
-15 -111 -35 -131 -45 -48 -24 -103 -89 -117 -138 -16 -52 -16 -490 0 -542 14
-49 69 -114 117 -138 41 -21 247 -81 276 -81 25 1 48 18 63 47 34 62 -3 95
-153 138 -80 24 -126 42 -137 56 -16 19 -18 47 -18 249 0 202 2 230 18 249 12
15 59 33 162 62 80 22 154 46 166 54 14 9 32 47 53 111 18 54 55 143 82 199
27 55 49 107 49 114 0 7 -33 72 -72 144 -83 149 -88 162 -76 198 12 34 309
329 334 330 40 3 57 -4 187 -77 74 -41 140 -74 148 -74 7 0 59 22 114 49 56
27 145 64 199 82 64 21 102 39 111 53 7 12 31 86 54 166 28 102 47 150 62 163
19 15 47 17 249 17 202 0 230 -2 249 -17 15 -13 34 -61 62 -163 23 -80 47
-154 54 -166 9 -14 47 -32 111 -53 54 -18 144 -55 200 -82 56 -27 107 -49 114
-49 7 0 71 33 143 73 149 82 162 87 198 75 34 -12 329 -309 330 -334 3 -40 -4
-57 -77 -187 -41 -74 -74 -140 -74 -148 0 -7 22 -59 49 -114 27 -56 64 -145
82 -199 21 -64 39 -102 53 -111 12 -7 86 -31 166 -54 102 -28 150 -47 163 -62
15 -19 17 -47 17 -251 0 -275 9 -258 -156 -303 -144 -39 -185 -76 -152 -138
15 -29 38 -46 63 -47 29 0 235 60 275 80 47 24 85 65 109 120 19 41 21 65 21
290 0 225 -2 249 -21 290 -23 52 -61 95 -104 118 -16 9 -84 32 -149 51 l-120
36 -36 95 c-20 52 -46 114 -58 137 -12 23 -22 48 -22 55 0 8 29 67 65 133 61
113 65 124 65 185 0 42 -7 79 -19 105 -27 58 -365 389 -411 403 -93 29 -141
19 -275 -53 -66 -36 -125 -65 -133 -65 -7 0 -38 13 -70 29 -31 16 -92 41 -135
56 -89 32 -84 26 -123 165 -15 52 -35 111 -45 131 -24 48 -89 103 -138 117
-53 17 -504 15 -550 -2z"/>
<path d="M2430 3994 c-246 -32 -506 -173 -660 -359 -273 -329 -326 -767 -137
-1141 49 -98 81 -134 119 -134 42 0 64 15 77 52 10 27 8 38 -14 77 -122 219
-158 408 -120 626 59 335 302 600 642 697 112 32 334 32 446 0 219 -63 389
-185 508 -366 149 -226 188 -494 108 -746 -21 -65 -41 -110 -92 -206 -24 -44
-26 -54 -16 -82 21 -62 91 -72 135 -19 44 52 112 204 139 312 143 559 -199
1128 -760 1266 -79 20 -297 33 -375 23z"/>
<path d="M2402 2700 c-113 -30 -206 -84 -293 -170 -247 -246 -251 -626 -11
-892 l34 -38 -53 0 c-140 0 -291 -49 -408 -130 l-71 -50 -70 11 -70 12 34 46
c156 215 137 492 -48 677 -205 205 -527 205 -732 0 -185 -185 -204 -462 -48
-678 l34 -46 -52 -7 c-240 -33 -433 -218 -479 -459 -5 -27 -9 -210 -9 -408 l0
-359 25 -24 c29 -30 74 -32 106 -6 l24 19 5 389 5 389 37 76 c45 91 103 147
196 191 l67 32 428 3 428 3 -30 -53 c-16 -29 -42 -89 -58 -133 l-28 -80 -3
-402 -3 -403 25 -25 c33 -33 79 -33 111 0 l25 24 0 359 c0 211 4 383 11 418
38 214 234 408 449 444 44 7 248 10 620 8 l555 -3 66 -26 c96 -37 148 -70 213
-135 65 -65 98 -118 135 -213 25 -66 25 -67 31 -464 l5 -399 24 -19 c33 -27
77 -24 107 6 l25 25 -3 398 c-5 443 -5 450 -77 595 l-39 78 427 -3 426 -3 67
-32 c93 -44 151 -100 196 -191 l37 -76 5 -389 5 -389 24 -19 c33 -27 77 -24
107 6 l25 25 -3 393 c-4 379 -5 394 -27 454 -75 204 -251 350 -459 378 l-52 7
34 46 c156 216 137 493 -48 678 -205 205 -527 205 -732 0 -185 -185 -204 -462
-48 -677 l34 -46 -70 -12 -70 -11 -71 50 c-117 81 -268 130 -408 130 l-53 0
34 38 c240 266 236 646 -11 892 -164 163 -393 226 -609 170z m273 -155 c256
-67 415 -329 350 -580 -62 -237 -291 -393 -529 -358 -194 28 -351 168 -401
358 -89 343 237 669 580 580z m-1449 -419 c77 -35 145 -103 181 -180 24 -52
28 -74 28 -146 0 -72 -4 -94 -28 -146 -36 -77 -104 -145 -182 -181 -51 -24
-73 -28 -145 -28 -72 0 -94 4 -145 28 -78 36 -146 104 -182 181 -24 52 -28 74
-28 146 0 72 4 94 28 145 86 183 293 263 473 181z m2960 0 c77 -35 145 -103
181 -180 24 -52 28 -74 28 -146 0 -72 -4 -94 -28 -146 -36 -77 -104 -145 -182
-181 -51 -24 -73 -28 -145 -28 -72 0 -94 4 -145 28 -78 36 -146 104 -182 181
-24 52 -28 74 -28 146 0 72 4 94 28 145 86 183 293 263 473 181z"/>
<path d="M585 775 l-25 -24 0 -271 0 -271 25 -24 c32 -33 78 -33 110 0 l25 24
0 271 0 271 -25 24 c-15 16 -36 25 -55 25 -19 0 -40 -9 -55 -25z"/>
<path d="M1785 775 l-25 -24 0 -271 0 -271 25 -24 c15 -16 36 -25 55 -25 19 0
40 9 55 25 l25 24 0 271 0 271 -25 24 c-15 16 -36 25 -55 25 -19 0 -40 -9 -55
-25z"/>
<path d="M3225 775 l-25 -24 0 -271 0 -271 25 -24 c32 -33 78 -33 110 0 l25
24 0 271 0 271 -25 24 c-15 16 -36 25 -55 25 -19 0 -40 -9 -55 -25z"/>
<path d="M4425 775 l-25 -24 0 -271 0 -271 25 -24 c32 -33 78 -33 110 0 l25
24 0 271 0 271 -25 24 c-15 16 -36 25 -55 25 -19 0 -40 -9 -55 -25z"/>
</g>
</svg>
