<?xml version="1.0" standalone="no"?>
<!DOCTYPE svg PUBLIC "-//W3C//DTD SVG 20010904//EN"
 "http://www.w3.org/TR/2001/REC-SVG-20010904/DTD/svg10.dtd">
<svg version="1.0" xmlns="http://www.w3.org/2000/svg"
 width="512.000000pt" height="512.000000pt" viewBox="0 0 512.000000 512.000000"
 preserveAspectRatio="xMidYMid meet">

<g transform="translate(0.000000,512.000000) scale(0.100000,-0.100000)"
fill="#000000" stroke="none">
<path d="M160 5107 c-49 -16 -133 -102 -148 -153 -9 -32 -12 -340 -12 -1296 0
-1394 -4 -1310 67 -1383 78 -80 -6 -75 1126 -75 l1007 0 0 -1007 c0 -1132 -5
-1048 75 -1126 73 -71 -11 -67 1383 -67 956 0 1264 3 1296 12 55 16 138 99
154 154 9 32 12 340 12 1296 0 1394 4 1310 -67 1383 -67 69 -91 75 -330 75
-200 0 -214 -1 -233 -20 -30 -30 -27 -83 6 -109 25 -20 40 -21 221 -21 l195 0
29 -29 29 -29 0 -331 0 -330 -33 7 c-17 4 -246 7 -507 7 -468 0 -476 0 -515
-22 -73 -39 -126 -110 -140 -186 l-7 -38 -111 3 -111 3 -8 42 c-9 57 -30 93
-77 136 -74 67 -90 68 -613 65 -255 -2 -471 -7 -480 -12 -17 -8 -18 11 -18
327 l0 334 26 27 27 26 902 0 c898 0 902 0 929 21 33 26 36 79 6 109 -20 20
-33 20 -670 20 l-650 0 0 1008 c0 1131 5 1047 -75 1125 -73 71 12 67 -1389 66
-889 -1 -1271 -4 -1296 -12z m2581 -166 l29 -29 0 -446 0 -446 -320 0 -320 0
0 30 c0 70 -60 154 -136 189 -44 21 -53 21 -543 19 l-498 -3 -49 -30 c-56 -35
-103 -104 -111 -163 l-5 -40 -78 -4 c-93 -4 -120 -21 -120 -76 0 -59 21 -72
112 -72 54 0 80 -4 83 -12 2 -7 5 -104 7 -216 l3 -202 -180 0 c-236 0 -315
-20 -422 -107 l-43 -34 0 285 0 286 97 0 c113 0 133 11 133 70 0 60 -25 74
-136 78 l-94 4 0 445 0 445 29 29 29 29 1252 0 1252 0 29 -29z m-786 -856 l25
-24 0 -276 c0 -170 -4 -284 -10 -296 -26 -48 -40 -49 -505 -49 -464 0 -490 2
-514 48 -7 14 -11 118 -11 295 l0 274 26 27 27 26 469 0 469 0 24 -25z m815
-501 l0 -286 -35 31 c-44 38 -112 74 -184 95 -42 12 -99 16 -244 16 l-189 0 7
23 c4 12 9 109 12 215 l5 192 314 0 314 0 0 -286z m-199 -327 c67 -32 142
-109 171 -174 11 -25 23 -72 25 -104 l6 -59 -195 0 c-189 0 -195 -1 -247 -26
-29 -15 -62 -39 -73 -55 l-22 -29 -1043 0 -1043 0 0 88 c0 148 45 249 144 323
95 72 25 68 1181 66 l1040 -2 56 -28z m-371 -752 l0 -155 -996 0 -996 0 -29
29 c-29 29 -29 30 -29 155 l0 126 1025 0 1025 0 0 -155z m1141 -601 c54 -27
59 -57 59 -324 0 -256 -6 -297 -48 -319 -31 -16 -942 -15 -963 2 -36 28 -39
51 -39 324 0 292 2 299 60 322 15 6 202 10 463 10 379 1 442 -1 468 -15z
m1600 -22 l29 -32 0 -269 0 -269 -26 -31 -26 -31 -468 0 -469 0 -28 24 -28 24
0 280 c0 266 1 281 20 302 11 12 29 26 40 31 11 4 224 7 473 6 l454 -2 29 -33z
m-1171 -384 c0 -95 4 -190 9 -210 l9 -38 -130 0 c-120 0 -130 1 -122 18 4 9 9
104 12 210 l4 192 109 0 109 0 0 -172z m1200 -643 l0 -245 -888 0 c-993 0
-932 5 -932 -69 0 -26 7 -44 21 -57 20 -18 52 -19 910 -22 l889 -2 0 -126 c0
-125 0 -126 -29 -155 l-29 -29 -1252 0 -1252 0 -29 29 c-29 29 -29 30 -29 155
l0 125 274 3 c253 3 276 4 295 22 14 13 21 31 21 57 0 68 -7 69 -317 69 l-273
0 0 245 0 245 1310 0 1310 0 0 -245z"/>
</g>
</svg>
