<?xml version="1.0" standalone="no"?>
<!DOCTYPE svg PUBLIC "-//W3C//DTD SVG 20010904//EN"
 "http://www.w3.org/TR/2001/REC-SVG-20010904/DTD/svg10.dtd">
<svg version="1.0" xmlns="http://www.w3.org/2000/svg"
 width="512.000000pt" height="512.000000pt" viewBox="0 0 512.000000 512.000000"
 preserveAspectRatio="xMidYMid meet">

<g transform="translate(0.000000,512.000000) scale(0.100000,-0.100000)"
fill="#000000" stroke="none">
<path d="M2375 5034 c-16 -2 -73 -9 -125 -15 -278 -31 -602 -133 -850 -265
-196 -105 -454 -296 -577 -427 -62 -65 -69 -102 -28 -142 46 -47 75 -35 196
80 328 311 762 518 1239 592 159 24 500 24 660 0 349 -53 668 -176 951 -367
74 -49 150 -103 169 -120 l35 -29 -238 -1 c-189 0 -244 -3 -266 -15 -46 -24
-55 -74 -20 -119 l20 -26 369 0 c203 0 376 3 385 6 42 16 45 46 45 411 0 374
-2 387 -52 410 -31 16 -83 1 -98 -27 -6 -11 -10 -129 -10 -280 l0 -261 -102
79 c-131 100 -169 125 -298 200 -263 151 -557 251 -875 298 -96 14 -468 27
-530 18z"/>
<path d="M105 3815 l-25 -24 0 -1231 0 -1231 25 -24 24 -25 1256 0 1255 0 0
43 c0 42 24 212 36 255 l6 22 -916 0 -917 0 -23 23 c-17 17 -24 39 -29 86 -17
156 -132 271 -289 288 -46 5 -68 12 -85 29 l-23 23 0 511 0 511 23 23 c17 17
39 24 86 29 73 8 168 54 207 100 43 51 74 124 81 189 5 46 12 68 29 85 l23 23
1391 0 1391 0 23 -23 c17 -17 24 -39 29 -85 17 -157 132 -272 288 -289 47 -5
69 -12 86 -29 23 -23 23 -25 23 -284 0 -143 3 -260 8 -260 24 -1 196 -42 246
-59 33 -12 61 -21 63 -21 1 0 3 297 3 660 l0 661 -25 24 -24 25 -2111 0 -2111
0 -24 -25z"/>
<path d="M946 3326 c-13 -67 -74 -171 -135 -229 -60 -57 -156 -111 -218 -123
l-33 -6 0 -408 0 -408 34 -6 c67 -13 171 -74 229 -135 57 -60 111 -156 123
-218 l6 -33 892 0 891 1 30 67 c103 231 340 473 580 594 149 75 315 121 484
134 l91 7 0 202 0 203 -32 6 c-63 12 -159 66 -219 123 -61 58 -122 162 -135
229 l-6 34 -1288 0 -1288 0 -6 -34z m1484 -155 c194 -61 360 -229 423 -426 18
-57 22 -93 22 -190 -1 -104 -5 -130 -27 -193 -37 -104 -83 -176 -158 -252 -76
-76 -167 -132 -265 -163 -99 -31 -271 -31 -370 0 -197 62 -365 230 -426 423
-29 91 -35 226 -15 320 50 238 251 442 486 495 88 20 244 13 330 -14z"/>
<path d="M2121 3024 c-253 -68 -410 -331 -346 -579 67 -256 329 -415 580 -350
256 67 415 329 350 578 -67 259 -333 419 -584 351z"/>
<path d="M3740 2385 c-293 -47 -576 -227 -747 -476 -117 -171 -193 -417 -193
-629 0 -212 76 -458 193 -629 174 -253 455 -431 757 -476 611 -93 1183 326
1275 935 65 426 -120 853 -476 1097 -226 155 -529 222 -809 178z m235 -250
c21 -20 25 -34 25 -85 0 -44 4 -60 14 -60 32 0 156 -73 196 -116 57 -62 99
-155 107 -237 5 -61 4 -67 -20 -91 -51 -51 -137 -17 -137 55 0 123 -117 239
-240 239 -63 0 -114 -23 -165 -75 -96 -95 -101 -220 -14 -319 51 -57 96 -77
198 -88 160 -16 272 -91 339 -226 35 -72 37 -81 37 -171 0 -87 -3 -102 -32
-163 -42 -90 -100 -150 -186 -193 -38 -19 -76 -35 -83 -35 -10 0 -14 -16 -14
-60 0 -51 -4 -65 -25 -85 -32 -33 -78 -33 -110 0 -21 20 -25 34 -25 85 0 44
-4 60 -14 60 -32 0 -156 73 -196 116 -57 62 -99 155 -107 237 -5 61 -4 67 20
91 51 51 137 17 137 -55 0 -62 23 -113 75 -164 101 -102 229 -102 330 0 96 95
101 220 14 319 -51 57 -96 77 -198 88 -160 16 -272 91 -339 226 -35 72 -37 81
-37 171 0 87 3 102 32 163 42 90 100 150 186 193 38 19 76 35 83 35 10 0 14
16 14 60 0 51 4 65 25 85 15 16 36 25 55 25 19 0 40 -9 55 -25z"/>
<path d="M822 933 c-7 -3 -19 -18 -27 -33 -20 -39 -22 -711 -2 -750 27 -53
111 -58 137 -10 6 11 10 128 10 279 l0 261 111 -85 c347 -266 732 -428 1164
-490 136 -20 369 -29 489 -20 85 6 102 10 123 31 31 31 30 77 -1 109 -25 25
-25 25 -173 19 -377 -17 -774 67 -1112 234 -126 62 -352 204 -431 272 l-35 29
238 1 c189 0 244 3 266 15 46 24 55 74 20 119 l-20 26 -372 -1 c-205 0 -378
-3 -385 -6z"/>
</g>
</svg>
