<?xml version="1.0" encoding="UTF-8"?>
<svg version="1.1" xmlns="http://www.w3.org/2000/svg" width="512" height="512">
<path d="M0 0 C21.12 0 42.24 0 64 0 C70 24 70 24 70 30 C71.134375 30.185625 72.26875 30.37125 73.4375 30.5625 C78.4771813 31.66719814 83.12166544 33.53683009 87.875 35.5 C88.62450928 35.80881104 89.37401855 36.11762207 90.14624023 36.43579102 C93.34825962 37.78273255 96.09060678 39.06040452 99 41 C102.30248917 40.63821639 104.67974048 39.11861894 107.44140625 37.34765625 C108.27220703 36.81849609 109.10300781 36.28933594 109.95898438 35.74414062 C110.81814453 35.18919922 111.67730469 34.63425781 112.5625 34.0625 C113.42552734 33.51142578 114.28855469 32.96035156 115.17773438 32.39257812 C118.46987439 30.28734795 121.74853502 28.16764332 125 26 C128.83094 26.25352078 130.69148044 28.32724683 133.30957031 30.96899414 C134.15013977 31.80979019 134.99070923 32.65058624 135.85675049 33.51686096 C136.75480408 34.43039841 137.65285767 35.34393585 138.578125 36.28515625 C139.5046991 37.21597519 140.43127319 38.14679413 141.38592529 39.1058197 C143.84539987 41.57673121 146.29573101 44.05651969 148.7442627 46.53826904 C151.24592051 49.07065253 153.75612622 51.5945313 156.265625 54.11914062 C161.18548013 59.07113953 166.09572753 64.03256949 171 69 C170.530143 70.42741502 170.05872876 71.8543175 169.58666992 73.28100586 C169.32432053 74.07566757 169.06197113 74.87032928 168.79167175 75.68907166 C167.7588585 78.70390376 166.55947023 81.63043487 165.3125 84.5625 C164.87550781 85.59503906 164.43851562 86.62757812 163.98828125 87.69140625 C163.66214844 88.45324219 163.33601563 89.21507813 163 90 C163.71542969 90.02578125 164.43085938 90.0515625 165.16796875 90.078125 C178.06530226 90.81225524 188.60171407 94.28873291 199 102 C199.78117187 102.57363281 200.56234375 103.14726563 201.3671875 103.73828125 C212.32122104 112.58868551 219.68525589 126.18547357 222 140 C222.12731783 142.55952742 222.21110203 145.09203165 222.23828125 147.65234375 C222.246353 148.38892715 222.25442474 149.12551056 222.26274109 149.88441467 C222.27653456 151.44350876 222.28727777 153.00263243 222.29516602 154.56176758 C222.30660511 156.12956831 222.3269267 157.69733264 222.35668945 159.26489258 C222.71927176 178.40883325 218.31343409 192.60057092 205.05078125 206.87109375 C204.03564453 207.92490234 204.03564453 207.92490234 203 209 C202.45730469 209.58910156 201.91460937 210.17820313 201.35546875 210.78515625 C200 212 200 212 198 212 C198.33 213.32 198.66 214.64 199 216 C204.4434959 217.40911569 209.88784804 218.81485691 215.33300781 220.2175293 C217.18383087 220.69480082 219.03441997 221.17298056 220.88476562 221.65209961 C223.55016518 222.34209417 226.21639935 223.02877799 228.8828125 223.71484375 C229.70492218 223.92842026 230.52703186 224.14199677 231.37405396 224.36204529 C233.57847811 224.92739714 235.78743482 225.46757681 238 226 C239.60041138 226.4031543 239.60041138 226.4031543 241.2331543 226.81445312 C244.80145679 227.05374633 246.35877393 226.11417481 249.38671875 224.25390625 C250.40958984 223.66416016 251.43246094 223.07441406 252.48632812 222.46679688 C254.58130839 221.22054565 256.66527353 219.95554129 258.73632812 218.66992188 C269.60666742 212.49006996 273.62208255 214 288 214 C288 254.26 288 294.52 288 336 C277.08223137 341.74619402 266.23917069 347.45085132 255.140625 352.80395508 C253.22735956 353.73160507 251.3146855 354.66046739 249.40202522 355.58936441 C248.06952548 356.23642626 246.73685618 356.88313903 245.40402031 357.52950823 C236.83986277 361.68414001 228.298749 365.88582047 219.75664902 370.08556712 C211.47344817 374.15780589 203.18347954 378.21449116 194.87011719 382.22485352 C188.21137985 385.43713573 181.56957896 388.68175464 174.94574738 391.96544379 C171.45549532 393.69422362 167.95908918 395.40601169 164.44152832 397.07862282 C161.14408138 398.64705024 157.87099769 400.257794 154.61113358 401.90284157 C152.85098321 402.77710541 151.06829918 403.60554266 149.2852478 404.43209839 C143.19021094 407.55899722 143.19021094 407.55899722 139.67254639 413.22110558 C138.82980524 416.68739511 138.82980524 416.68739511 138.41268921 420.07340527 C137.54825225 426.20357926 133.45496455 429.92967561 128.86328125 433.67578125 C124.57975714 436.72004681 120.35483649 438.48680332 115 438 C114.9175 439.175625 114.835 440.35125 114.75 441.5625 C113.86048768 448.55505518 110.29624395 453.44276683 105 458 C100.12872427 461.54600219 95.98127345 462.58026151 90 463 C89.95875 464.299375 89.9175 465.59875 89.875 466.9375 C89.12770926 473.43790572 86.06130316 478.30579101 81.17578125 482.60546875 C76.17806659 486.06230587 70.95438499 487.18249222 65 488 C64.95875 489.299375 64.9175 490.59875 64.875 491.9375 C64.21383988 497.68868735 61.85235836 501.73429847 58 506 C49.67085983 512.6004507 41.20999942 512.70552809 31 512 C25.78228343 510.67359732 22.79278335 507.80005485 19.0625 504.0625 C17.14863795 502.18245748 17.14863795 502.18245748 15 501 C12.54262956 501.25818526 10.73764302 502.06799673 8.484375 503.0703125 C2.2166508 505.41578162 -4.83865857 504.81739914 -10.9375 502.25 C-17.98619375 498.57959911 -21.91940541 494.34787738 -25 487 C-25.61837685 484.26921173 -25.84671795 481.81017097 -26 479 C-27.299375 478.95875 -28.59875 478.9175 -29.9375 478.875 C-36.39787213 478.14248536 -41.19244881 474.98515783 -45.60546875 470.29296875 C-49.42787845 465.32719896 -51 460.29217019 -51 454 C-52.299375 453.95875 -53.59875 453.9175 -54.9375 453.875 C-61.43347603 453.1282185 -66.34967904 450.06947148 -70.60546875 445.140625 C-73.8213589 440.42524355 -75.13197035 435.5968479 -76 430 C-77.9490625 429.690625 -77.9490625 429.690625 -79.9375 429.375 C-87.00653028 427.77194431 -92.82409093 424.23095438 -96.9375 418.1875 C-98.220821 416.10382827 -98.9635307 414.45020914 -99.16210938 411.9987793 C-99.58869456 407.93624902 -100.17892227 405.72367495 -103.31323242 402.96118164 C-106.35350829 400.97569016 -109.44118614 399.1832786 -112.625 397.4375 C-113.71296875 396.81037109 -114.8009375 396.18324219 -115.921875 395.53710938 C-118.60079353 393.99790619 -121.29211651 392.4874603 -124 391 C-124.66 392.98 -125.32 394.96 -126 397 C-139.43525791 397.81437744 -150.11857211 395.79875031 -162.75 391.34765625 C-164.46746946 390.76478576 -166.18575016 390.18430084 -167.90478516 389.60606384 C-172.37077824 388.09664525 -176.82489836 386.55487414 -181.27722168 385.00567627 C-185.83658112 383.42630435 -190.40715651 381.88008592 -194.9765625 380.33007812 C-201.62287742 378.06987241 -208.26535686 375.7990266 -214.8984375 373.50024414 C-215.59232574 373.26072021 -216.28621399 373.02119629 -217.00112915 372.77441406 C-221.76331492 371.11834254 -221.76331492 371.11834254 -224 370 C-224 313.24 -224 256.48 -224 198 C-197.68628453 198 -186.08370704 200.45634517 -166.91796875 215.109375 C-161.27030442 219.24436556 -157.61429574 221.52712259 -150.421875 220.4296875 C-145.15972133 219.32525245 -140.06271123 217.8031474 -135 216 C-134.54423617 212.1199039 -134.54423617 212.1199039 -136.50390625 210.39453125 C-137.52291016 209.61142578 -137.52291016 209.61142578 -138.5625 208.8125 C-149.01952314 200.12910623 -155.57936998 188.34684653 -158 175 C-158.4820963 169.70307795 -158.47423536 164.39086677 -158.44604492 159.07617188 C-158.43753785 156.63585833 -158.46637979 154.19789617 -158.49804688 151.7578125 C-158.57195355 135.37329601 -154.46625861 120.21378416 -143.046875 107.91015625 C-130.10381056 95.83160947 -116.47864804 90.794484 -99 90 C-99.25281738 89.44538086 -99.50563477 88.89076172 -99.76611328 88.31933594 C-100.90209244 85.80323945 -102.01367344 83.27707591 -103.125 80.75 C-103.52332031 79.87730469 -103.92164062 79.00460938 -104.33203125 78.10546875 C-104.69941406 77.26113281 -105.06679687 76.41679688 -105.4453125 75.546875 C-105.79094238 74.77182617 -106.13657227 73.99677734 -106.49267578 73.19824219 C-107.15887245 70.31160368 -106.50906159 69.5154154 -105 67 C-103.74506359 65.54516856 -102.43416546 64.13782216 -101.08862305 62.76635742 C-100.28406174 61.94258102 -99.47950043 61.11880463 -98.65055847 60.27006531 C-97.77974136 59.39074844 -96.90892426 58.51143158 -96.01171875 57.60546875 C-95.11636917 56.69871902 -94.22101959 55.7919693 -93.29853821 54.85774231 C-91.40403392 52.94435369 -89.50714643 51.03366302 -87.60668945 49.1262207 C-85.17180881 46.68033633 -82.75605351 44.21643294 -80.34424114 41.74782848 C-78.03821459 39.39564454 -75.71107511 37.06451965 -73.38671875 34.73046875 C-72.52197433 33.84103073 -71.65722992 32.95159271 -70.76628113 32.03520203 C-69.95226334 31.22718643 -69.13824554 30.41917084 -68.29956055 29.58666992 C-67.58833542 28.86815353 -66.87711029 28.14963715 -66.14433289 27.40934753 C-64 26 -64 26 -61.34686279 26.21533203 C-59.07896007 26.97359989 -57.40403793 27.79359251 -55.44140625 29.14453125 C-54.80783203 29.57443359 -54.17425781 30.00433594 -53.52148438 30.44726562 C-52.87501953 30.89779297 -52.22855469 31.34832031 -51.5625 31.8125 C-50.91990234 32.25142578 -50.27730469 32.69035156 -49.61523438 33.14257812 C-48.98037109 33.57634766 -48.34550781 34.01011719 -47.69140625 34.45703125 C-47.06766113 34.88193848 -46.44391602 35.3068457 -45.80126953 35.74462891 C-44.1181369 36.91766604 -42.47696467 38.15027761 -40.83984375 39.38671875 C-38.17770634 41.22413097 -38.17770634 41.22413097 -35.47265625 40.92578125 C-32.65784341 39.87189398 -30.08579703 38.61073446 -27.4375 37.1875 C-13.4435241 30 -13.4435241 30 -6 30 C-5.814375 28.07994141 -5.814375 28.07994141 -5.625 26.12109375 C-5.05817133 21.02662131 -4.08375287 16.06896707 -3 11.0625 C-2.73316406 9.78922852 -2.73316406 9.78922852 -2.4609375 8.49023438 C-1.13455704 2.26911408 -1.13455704 2.26911408 0 0 Z M14 17 C12.7625 22.56875 12.7625 22.56875 11.5 28.25 C11.10844727 29.99651855 11.10844727 29.99651855 10.70898438 31.77832031 C10.50595703 32.70225586 10.30292969 33.62619141 10.09375 34.578125 C9.88427734 35.52075195 9.67480469 36.46337891 9.45898438 37.43457031 C8.8825901 40.22188558 8.8825901 40.22188558 9 44 C8.01902344 44.21914063 7.03804688 44.43828125 6.02734375 44.6640625 C-8.14864992 47.9449848 -20.71691838 52.76892651 -32.9765625 60.65625 C-36 62 -36 62 -38.39868164 61.26025391 C-40.93431252 60.03182344 -43.27156262 58.69709601 -45.64453125 57.1796875 C-46.48564453 56.64472656 -47.32675781 56.10976563 -48.19335938 55.55859375 C-49.48983398 54.72521484 -49.48983398 54.72521484 -50.8125 53.875 C-51.69615234 53.31167969 -52.57980469 52.74835937 -53.49023438 52.16796875 C-55.66257413 50.78236826 -57.83237083 49.39295366 -60 48 C-65.99500997 52.96194855 -71.46427037 58.3476624 -76.9375 63.875 C-77.81212891 64.75414062 -78.68675781 65.63328125 -79.58789062 66.5390625 C-81.72757048 68.6904346 -83.86486597 70.84411792 -86 73 C-85.27698728 75.18301393 -84.5509762 77.36494236 -83.8203125 79.54541016 C-83.13223705 81.60431211 -82.45539986 83.66696517 -81.78125 85.73046875 C-79.43514016 92.06067365 -77.71437001 96.3017027 -71.5625 99.5 C-70.61890625 99.91507812 -69.6753125 100.33015625 -68.703125 100.7578125 C-64.8030585 102.55003959 -62.12103767 105.08703151 -59 108 C-58.45472656 107.24976562 -57.90945312 106.49953125 -57.34765625 105.7265625 C-39.05101729 80.8931756 -15.02786977 63.70512991 16 59 C45.06237632 55.3556605 74.21900546 62.36092046 97.62158203 80.23876953 C107.29311123 87.77557905 115.87146137 96.26529858 122 107 C125.21025624 105.50582544 127.99466719 103.67981686 130.875 101.625 C133.56447091 99.71117587 136.1268055 97.93187057 139.0390625 96.3671875 C143.17839904 93.05790262 144.57138514 89.34345324 146.5 84.5 C147.056875 83.21802734 147.056875 83.21802734 147.625 81.91015625 C149.66815181 77.60341016 149.66815181 77.60341016 149.41064453 73.06347656 C147.49500199 70.26129402 145.18857847 67.94267392 142.7734375 65.578125 C142.01191879 64.82085114 142.01191879 64.82085114 141.23501587 64.04827881 C139.61966158 62.44407904 137.99747791 60.84699144 136.375 59.25 C135.27558302 58.16061893 134.17661941 57.0707801 133.078125 55.98046875 C130.3906398 53.31498115 127.69700979 50.65584857 125 48 C118.6034002 51.0243635 113.04210966 54.59193435 107.38085938 58.81640625 C105.48828125 60.1484375 105.48828125 60.1484375 102 62 C99.44921875 61.51953125 99.44921875 61.51953125 97 60 C95.9996875 59.43925781 94.999375 58.87851562 93.96875 58.30078125 C92.8240625 57.64464844 91.679375 56.98851562 90.5 56.3125 C79.76512313 50.37938403 67.21054976 45.58396294 55 44 C54.81630859 42.06833984 54.81630859 42.06833984 54.62890625 40.09765625 C54.07569546 35.1187591 53.07235767 30.31157408 51.9375 25.4375 C51.298125 22.653125 50.65875 19.86875 50 17 C38.12 17 26.24 17 14 17 Z M-27.74609375 97.88671875 C-30 100 -30 100 -32.4296875 101.80859375 C-35.75168885 104.64087757 -38.13855537 107.85156089 -40.6875 111.375 C-41.17283203 112.02210937 -41.65816406 112.66921875 -42.15820312 113.3359375 C-44.87506348 117.05335195 -47.109811 120.39860052 -48 125 C-47.43194761 127.82449622 -47.43194761 127.82449622 -46.1875 130.5 C-42.75683316 138.64929733 -42.75364032 146.63805883 -42.70483398 155.35546875 C-42.69339294 156.77093566 -42.6730679 158.18636217 -42.64331055 159.6015625 C-42.24508071 178.60980683 -47.49123063 193.60430946 -60.6328125 207.6875 C-63 210 -63 210 -65.3046875 211.625 C-65.86414063 212.07875 -66.42359375 212.5325 -67 213 C-67 213.99 -67 214.98 -67 216 C-61.76808076 217.47075063 -56.53190251 218.92434118 -51.29101562 220.36279297 C-49.35045287 220.90252749 -47.41658072 221.46622901 -45.484375 222.03515625 C-44.49953125 222.31230469 -43.5146875 222.58945313 -42.5 222.875 C-41.6646875 223.11992187 -40.829375 223.36484375 -39.96875 223.6171875 C-31.28445888 224.73700399 -22.71069426 222.12017571 -14.375 219.9375 C-13.27542969 219.65583984 -12.17585938 219.37417969 -11.04296875 219.08398438 C-8.3602341 218.39580462 -5.67939571 217.70104562 -3 217 C-2.33232193 214.60611349 -2.33232193 214.60611349 -2 212 C-3.84721592 209.7591026 -3.84721592 209.7591026 -6.5 207.8125 C-16.91282202 198.97252382 -23.12812467 187.6118986 -25 174 C-25.11381749 171.37271296 -25.18717605 168.77189433 -25.203125 166.14453125 C-25.20882507 165.40224777 -25.21452515 164.65996429 -25.22039795 163.89518738 C-25.22980306 162.32947189 -25.23636397 160.763737 -25.24023438 159.19799805 C-25.24990088 156.83671303 -25.28094992 154.47631426 -25.3125 152.11523438 C-25.43261515 135.16032114 -21.39675881 120.80198664 -9.34765625 108.25 C1.94700375 97.42516779 15.16046456 91.28961682 30.9921875 90.90234375 C44.61065015 91.24272349 55.99289366 94.94817784 67 103 C67.65742188 103.47308594 68.31484375 103.94617188 68.9921875 104.43359375 C80.11547316 113.15919339 86.61801077 127.36027594 89 141 C89.35545187 145.79195068 89.43373454 150.54212687 89.39111328 155.34521484 C89.37501709 157.49771458 89.39105607 159.64833772 89.41015625 161.80078125 C89.43912095 180.15913283 84.23482085 194.38692964 71.48828125 207.6015625 C69 210 69 210 66 212 C66.33 213.65 66.66 215.3 67 217 C70.79890529 218.03721883 74.60321955 219.05129589 78.41357422 220.0456543 C80.33483324 220.55191585 82.25147849 221.07558449 84.16796875 221.59960938 C96.50952187 224.79807471 105.33947151 223.15935299 117.5 220 C118.5828125 219.72671875 119.665625 219.4534375 120.78125 219.171875 C126.0203771 217.94842147 126.0203771 217.94842147 131 216 C130.50283352 211.88456635 128.51151947 210.47230048 125.375 207.9375 C114.56900103 198.52084375 107.75137201 184.50184312 106.7253418 170.16113281 C106.6754114 162.59597793 106.6754114 162.59597793 106.68432617 159.52929688 C106.6874735 157.26903433 106.66401925 155.01010025 106.63867188 152.75 C106.5967293 143.17026339 107.27609056 134.24876709 111.1640625 125.32958984 C112.30774151 122.95745803 112.30774151 122.95745803 110.98046875 120.4921875 C109.02109546 117.63210013 107.05438762 114.79308513 105 112 C104.31035156 111.0615625 103.62070312 110.123125 102.91015625 109.15625 C88.08541256 90.06905741 65.84346625 78.10873618 42 75 C16.52429369 72.75382186 -9.02206464 80.04978408 -27.74609375 97.88671875 Z M-132.43359375 122.95703125 C-140.27266702 133.18105947 -141.36059342 145.4012322 -141.375 157.8125 C-141.39949219 158.91142578 -141.42398438 160.01035156 -141.44921875 161.14257812 C-141.48985796 172.63670103 -138.49650592 183.11647536 -131 192 C-127.46728699 195.55767918 -123.97303985 199.07248202 -119.40380859 201.22045898 C-117 203 -117 203 -116.34057617 205.8190918 C-116.32486572 206.93453369 -116.30915527 208.04997559 -116.29296875 209.19921875 C-116.26396484 210.40771484 -116.23496094 211.61621094 -116.20507812 212.86132812 C-116.19927734 214.12396484 -116.19347656 215.38660156 -116.1875 216.6875 C-116.16236328 217.96173828 -116.13722656 219.23597656 -116.11132812 220.54882812 C-116.05232624 223.69952858 -116.01614034 226.84883548 -116 230 C-116.74548096 230.13132324 -117.49096191 230.26264648 -118.2590332 230.39794922 C-119.24218506 230.57342285 -120.22533691 230.74889648 -121.23828125 230.9296875 C-122.21063721 231.10226074 -123.18299316 231.27483398 -124.18481445 231.45263672 C-127.53991427 232.10497683 -130.73843346 232.98529041 -134 234 C-131.07191529 236.28189552 -128.0608678 238.21083499 -124.8515625 240.07421875 C-123.35206055 240.94699463 -123.35206055 240.94699463 -121.82226562 241.83740234 C-120.23961914 242.75320068 -120.23961914 242.75320068 -118.625 243.6875 C-117.55185547 244.31092285 -116.47871094 244.9343457 -115.37304688 245.57666016 C-107.60193609 250.08638705 -99.81192632 254.5614055 -92 259 C-92 264.61 -92 270.22 -92 276 C-85.74629196 275.27470247 -85.74629196 275.27470247 -79.71875 274.02734375 C-79.02265625 273.85009766 -78.3265625 273.67285156 -77.609375 273.49023438 C-76.56523437 273.21663086 -76.56523437 273.21663086 -75.5 272.9375 C-74.77296875 272.75123047 -74.0459375 272.56496094 -73.296875 272.37304688 C-71.53012276 271.91973545 -69.76489225 271.4604998 -68 271 C-67.89042969 270.02160156 -67.78085938 269.04320312 -67.66796875 268.03515625 C-66.24958407 256.01726266 -63.60088827 247.23244493 -57 237 C-65.80372952 233.73935944 -74.83341391 231.96911849 -84 230 C-84 220.76 -84 211.52 -84 202 C-81.525 201.01 -81.525 201.01 -79 200 C-68.98103677 194.00826709 -62.93565579 185.20599792 -60 174 C-56.85524834 156.46436489 -58.56177526 139.25606174 -68 124 C-74.70526068 115.37008116 -84.05811884 109.42890398 -95 108 C-109.71788443 106.65448314 -122.3038834 112.31025912 -132.43359375 122.95703125 Z M-1.20703125 124.4375 C-10.88567986 138.27016555 -10.39184906 156.62658959 -8.57421875 172.78515625 C-6.11698434 184.22712509 0.75545334 193.07475657 10 200 C10.85601807 200.40130127 11.71203613 200.80260254 12.59399414 201.21606445 C15 203 15 203 15.65942383 205.8190918 C15.67513428 206.93453369 15.69084473 208.04997559 15.70703125 209.19921875 C15.75053711 211.01196289 15.75053711 211.01196289 15.79492188 212.86132812 C15.80072266 214.12396484 15.80652344 215.38660156 15.8125 216.6875 C15.83763672 217.96173828 15.86277344 219.23597656 15.88867188 220.54882812 C15.94767376 223.69952858 15.98385966 226.84883548 16 230 C15.43434326 230.08854248 14.86868652 230.17708496 14.28588867 230.26831055 C5.39441707 231.76763675 -3.31805857 233.93496489 -12.05297852 236.14868164 C-13.81311542 236.59218199 -15.57486357 237.02933481 -17.33813477 237.46020508 C-19.92047713 238.09124209 -22.49754691 238.74077222 -25.07421875 239.39453125 C-26.24013802 239.67451714 -26.24013802 239.67451714 -27.42961121 239.9601593 C-35.63323383 242.09037317 -42.13752722 245.91468252 -47 253 C-49.38931855 257.80754014 -50.14573588 261.60010231 -50 267 C-48.75863281 266.7834375 -48.75863281 266.7834375 -47.4921875 266.5625 C-21.7701922 262.56253529 0.4730564 266.92697285 24.94921875 274.74609375 C26.1304834 275.12233887 27.31174805 275.49858398 28.52880859 275.88623047 C30.76442168 276.60355125 32.99683269 277.33096958 35.22509766 278.07080078 C40.90203945 279.91005646 46.45188036 281.32253576 52.3359375 282.33203125 C64.39313495 284.40582889 76.05039433 288.17310695 87.77294922 291.6105957 C90.81814787 292.50077821 93.86596901 293.38150943 96.9140625 294.26171875 C98.3016124 294.6741407 98.3016124 294.6741407 99.7171936 295.09489441 C104.2375831 296.39861613 108.24142172 297.45713305 113 297 C114.96179628 295.03820372 114.21111196 291.27911917 114.23828125 288.59765625 C114.25038887 287.47006142 114.25038887 287.47006142 114.26274109 286.31968689 C114.27660766 284.71990274 114.28731824 283.12008867 114.29516602 281.52026367 C114.31221151 279.10340426 114.3560491 276.6879739 114.40039062 274.27148438 C114.49439396 265.06500622 114.49834615 256.47842901 108.35839844 249.00073242 C99.27908511 240.13490066 85.15029287 238.35391508 73.24511719 235.42578125 C70.47665538 234.74425312 67.71089638 234.05247932 64.9453125 233.359375 C63.18244033 232.92127635 61.41942458 232.48375499 59.65625 232.046875 C58.41881042 231.73759064 58.41881042 231.73759064 57.15637207 231.42205811 C54.03717227 230.65847576 51.22414669 230 48 230 C47.87692106 225.6441736 47.86605716 221.29489836 47.875 216.9375 C47.83890625 215.70837891 47.8028125 214.47925781 47.765625 213.21289062 C47.86273242 204.20617736 47.86273242 204.20617736 51.16772461 200.70092773 C53.83203125 198.8671875 53.83203125 198.8671875 56.47973633 197.41357422 C64.12992636 193.12270913 69.18176294 184.2760016 71.56860352 176.03735352 C72.99514692 170.2721374 73.35085158 164.73672285 73.3125 158.8125 C73.30686035 157.89557373 73.3012207 156.97864746 73.29541016 156.03393555 C73.03684155 141.43760983 69.87024806 130.05872053 59.75 119.1875 C50.92383933 110.77738731 40.39412979 107.46639211 28.34375 107.6875 C16.45695158 108.79841574 6.37210903 115.48170948 -1.20703125 124.4375 Z M133.25 121.75 C122.09095448 135.39458698 121.65706504 152.22082854 123.19042969 169.09570312 C124.66146043 180.89997435 129.91217824 190.17103358 139.140625 197.62890625 C143.1799004 200.84938787 143.1799004 200.84938787 148 202 C148 211.24 148 220.48 148 230 C145.215625 230.598125 142.43125 231.19625 139.5625 231.8125 C133.22392615 233.19772862 127.09457378 234.74275045 121 237 C121.72316406 238.17755859 121.72316406 238.17755859 122.4609375 239.37890625 C129.66722054 251.36486681 131.0139858 261.79613693 131.5625 275.5 C131.62727539 277.01980469 131.62727539 277.01980469 131.69335938 278.5703125 C131.79849192 281.0467679 131.90063837 283.52330749 132 286 C136.44183243 284.33451496 140.59741852 282.23691291 144.80859375 280.0703125 C145.56325424 279.68391098 146.31791473 279.29750946 147.09544373 278.8993988 C149.54423117 277.64403943 151.99101501 276.38483993 154.4375 275.125 C155.69110321 274.48073563 155.69110321 274.48073563 156.97003174 273.82345581 C167.51505482 268.40168525 178.01011722 262.90854089 188.38891602 257.17333984 C198.49354694 251.59460714 208.74762344 246.30089628 219 241 C219 240.34 219 239.68 219 239 C213.929109 237.71374746 208.85707958 236.43212259 203.78393555 235.15478516 C202.05802797 234.71953512 200.3324392 234.28301892 198.60717773 233.84521484 C196.12826804 233.21639737 193.64825013 232.59213194 191.16796875 231.96875 C190.39599655 231.77188599 189.62402435 231.57502197 188.82865906 231.37219238 C185.8100668 230.61730699 183.12469987 230 180 230 C179.87692106 225.6441736 179.86605716 221.29489836 179.875 216.9375 C179.82085937 215.09381836 179.82085937 215.09381836 179.765625 213.21289062 C179.86270092 204.20909859 179.86270092 204.20909859 183.15014648 200.71411133 C185.80078125 198.890625 185.80078125 198.890625 188.4309082 197.45019531 C197.497794 192.33213947 201.71482127 182.74643809 204.54418945 173.15527344 C207.50435282 159.15831459 206.23580493 140.95794223 199.0625 128.5 C198.06110983 126.98695062 197.04293663 125.48471676 196 124 C195.4225 123.113125 194.845 122.22625 194.25 121.3125 C185.86213023 112.69163384 175.85814256 107.9672048 163.875 107.6875 C151.8537842 107.80961167 141.42537194 113.01080931 133.25 121.75 Z M-207 215 C-207 261.86 -207 308.72 -207 357 C-189.83210719 364.48774753 -189.83210719 364.48774753 -172 368 C-166.55623314 346.56410296 -161.12038161 325.12621127 -155.69309616 303.68613529 C-154.48603293 298.91818171 -153.27745954 294.15061437 -152.06787109 289.38330078 C-150.73291941 284.12078257 -149.40235862 278.8571794 -148.07632446 273.59240723 C-147.61068087 271.74669093 -147.14338865 269.90138974 -146.67440796 268.05651855 C-146.03633736 265.54527741 -145.40407653 263.03264718 -144.7734375 260.51953125 C-144.49822517 259.44488365 -144.49822517 259.44488365 -144.217453 258.348526 C-143.40433611 255.08164762 -143 252.3995725 -143 249 C-143.66193359 248.6189209 -144.32386719 248.2378418 -145.00585938 247.84521484 C-157.39255806 240.71199383 -169.77264648 233.56758344 -182.125 226.375 C-183.10017578 225.8082959 -184.07535156 225.2415918 -185.08007812 224.65771484 C-186.00498047 224.11840332 -186.92988281 223.5790918 -187.8828125 223.0234375 C-188.75711914 222.51522461 -189.63142578 222.00701172 -190.53222656 221.48339844 C-193.45200174 219.72829812 -196.26535855 217.83669761 -199.04638672 215.86962891 C-201.55717192 214.59333195 -201.55717192 214.59333195 -207 215 Z M261.921875 237.515625 C261.20799622 237.88234314 260.49411743 238.24906128 259.75860596 238.62689209 C257.42009663 239.83017695 255.08494506 241.03981506 252.75 242.25 C251.13023399 243.08598721 249.5104422 243.92192447 247.890625 244.7578125 C238.69567765 249.51267217 229.56437947 254.36398738 220.50878906 259.37988281 C211.17130932 264.51987635 201.66851152 269.33505513 192.17919922 274.18652344 C182.55701293 279.10855569 173.00281909 284.11652334 163.55004883 289.35864258 C152.96499102 295.18834324 142.17666239 300.63442767 131.41210938 306.12304688 C130.6649617 306.5047554 129.91781403 306.88646393 129.14802551 307.27973938 C127.72891611 308.00448387 126.30893399 308.72752265 124.88798523 309.44865417 C121.73847485 310.92263021 121.73847485 310.92263021 119 313 C104.13311687 314.73380873 90.82574349 310.36544211 76.75 306.0625 C73.42178855 305.06982057 70.09173157 304.08351695 66.76153564 303.09751892 C64.70648035 302.48640409 62.65296353 301.87008423 60.60125732 301.24781799 C59.67548889 300.967603 58.74972046 300.687388 57.79589844 300.39868164 C56.98779724 300.15219376 56.17969604 299.90570587 55.34710693 299.65174866 C51.15222678 298.48690718 47.16628233 297.82717192 42.8125 297.75 C41.95269531 297.72421875 41.09289062 297.6984375 40.20703125 297.671875 C31.37052848 298.57597516 23.51242436 302.43575033 15.6640625 306.3671875 C14.62228851 306.88378937 13.58051453 307.40039124 12.50717163 307.93264771 C10.32192972 309.01955972 8.13873514 310.11059682 5.95751953 311.20556641 C2.62075603 312.87712603 -0.72615368 314.52699771 -4.07421875 316.17578125 C-6.20377249 317.23828657 -8.33270137 318.3020454 -10.4609375 319.3671875 C-11.45886322 319.85694061 -12.45678894 320.34669373 -13.48495483 320.85128784 C-20.2120766 324.25967119 -20.2120766 324.25967119 -25 330 C-26.06954205 333.93091428 -25.75608584 337.49058776 -23.9296875 341.13671875 C-21.83460845 343.96812211 -21.83460845 343.96812211 -19 346 C-12.84890869 346.49335106 -9.59965606 345.75229451 -4.2265625 342.45703125 C-3.61791351 342.09155685 -3.00926453 341.72608246 -2.38217163 341.34953308 C-0.45267057 340.18677408 1.46125102 339.00097006 3.375 337.8125 C5.89985383 336.27106775 8.43014447 334.73868768 10.9609375 333.20703125 C11.56814636 332.83764435 12.17535522 332.46825745 12.80096436 332.087677 C25.10674307 324.65071366 35.36569057 321.14908714 49.75 323.4375 C58.52775793 326.28434041 65.37783827 333.86478645 72 340 C72.63083496 340.58120605 73.26166992 341.16241211 73.91162109 341.76123047 C76.92763775 344.54241583 79.93158482 347.33597259 82.92578125 350.140625 C85.87390348 352.89541313 88.89023609 355.5598174 91.9453125 358.1953125 C94.66924703 360.58781774 97.33343269 363.04405942 100 365.5 C103.90706466 369.09768991 107.85250716 372.64003758 111.8671875 376.1171875 C115.16380488 379.02738819 118.38982111 382.01506368 121.61328125 385.00585938 C123.06602102 386.34759892 124.53301739 387.67384772 126 389 C126.49209961 389.50112305 126.98419922 390.00224609 127.49121094 390.51855469 C129.14170023 392.18589646 129.14170023 392.18589646 132 394 C136.17108584 392.96633895 139.89420504 391.17759637 143.72602844 389.26060486 C145.40223518 388.42564735 145.40223518 388.42564735 147.11230469 387.57382202 C148.33573229 386.95936707 149.55911963 386.34483193 150.7824707 385.73022461 C152.08204068 385.08097652 153.38178385 384.43207501 154.6816864 383.78349304 C158.19965291 382.02692662 161.71510808 380.26538851 165.23007226 378.50282359 C168.90915962 376.65888093 172.59036101 374.81916783 176.27128601 372.97889709 C182.44695485 369.89059497 188.62106887 366.7992029 194.79418945 363.70581055 C201.93840514 360.1258253 209.08471475 356.55004941 216.23223048 352.97665781 C223.10603921 349.54005815 229.97870414 346.10117795 236.85072899 342.66101265 C239.77743835 341.19588961 242.70448865 339.73145092 245.6317997 338.26753044 C249.07270117 336.54657899 252.51257961 334.82359967 255.95166206 333.09901619 C257.21675623 332.46500392 258.48219353 331.83167581 259.74798965 331.19906616 C261.46921531 330.33869721 263.18909325 329.47563362 264.90888977 328.6124115 C266.3559378 327.8876306 266.3559378 327.8876306 267.83221912 327.14820766 C269.91918907 326.17877539 269.91918907 326.17877539 271 325 C271.09520906 322.16959328 271.12553631 319.36365007 271.11352539 316.53295898 C271.11374443 315.20137756 271.11374443 315.20137756 271.1139679 313.84289551 C271.11326843 310.89393716 271.10547448 307.94504113 271.09765625 304.99609375 C271.09579219 302.95728083 271.09436823 300.91846746 271.09336853 298.87965393 C271.08954241 293.50215426 271.07971132 288.12468142 271.06866455 282.74719238 C271.05845245 277.26440799 271.05387134 271.78161928 271.04882812 266.29882812 C271.03808914 255.53254027 271.02101159 244.76627236 271 234 C267.64073086 234 264.85179227 235.99542958 261.921875 237.515625 Z M-127 259 C-130.82674013 272.50757804 -134.37261776 286.07569915 -137.80859375 299.6875 C-138.2026324 301.24768356 -138.2026324 301.24768356 -138.60463142 302.83938599 C-139.98635121 308.31341083 -141.36480745 313.78824669 -142.7409668 319.26367188 C-143.87800769 323.78487848 -145.02192729 328.30426272 -146.17163086 332.82226562 C-147.56880074 338.31282586 -148.95462179 343.80612852 -150.33207893 349.30166626 C-150.85721871 351.38876398 -151.38637578 353.47485508 -151.91958427 355.55990601 C-152.65844615 358.45267656 -153.38265984 361.34873186 -154.10327148 364.24609375 C-154.32702454 365.10829529 -154.55077759 365.97049683 -154.78131104 366.85882568 C-155.27735535 368.88599353 -155.65176658 370.94228211 -156 373 C-153.51737568 375.48262432 -151.38224713 376.07286975 -148.0625 377.1875 C-147.00160156 377.55230469 -145.94070312 377.91710937 -144.84765625 378.29296875 C-141.95240885 379.28164335 -141.95240885 379.28164335 -139 378 C-138.07411335 376.19882613 -138.07411335 376.19882613 -137.49359131 373.92718506 C-137.23559753 373.04955002 -136.97760376 372.17191498 -136.71179199 371.26768494 C-136.44048462 370.29730789 -136.16917725 369.32693085 -135.88964844 368.32714844 C-135.59499695 367.31090897 -135.30034546 366.29466949 -134.99676514 365.24763489 C-134.02168337 361.87170032 -133.06508416 358.49084063 -132.109375 355.109375 C-131.43943286 352.768435 -130.76870751 350.42771901 -130.097229 348.08721924 C-128.69050803 343.1732063 -127.29279263 338.25674402 -125.90136719 333.33837891 C-124.11622644 327.0307529 -122.30994799 320.72941964 -120.49697495 314.42974472 C-119.1075857 309.59370595 -117.729023 304.75463347 -116.3537674 299.91455841 C-115.69194511 297.58998741 -115.02684957 295.26634578 -114.35845184 292.94365692 C-113.42560869 289.69556889 -112.50729456 286.44371644 -111.59277344 283.19042969 C-111.17366699 281.74700951 -111.17366699 281.74700951 -110.74609375 280.27442932 C-110.49937927 279.38551498 -110.25266479 278.49660065 -109.99847412 277.58074951 C-109.67109064 276.42815203 -109.67109064 276.42815203 -109.33709335 275.25226974 C-108.93512552 272.56654491 -109.25355038 270.60098418 -110 268 C-111.53957165 266.51992287 -111.53957165 266.51992287 -113.5625 265.54296875 C-114.63371094 264.95805664 -114.63371094 264.95805664 -115.7265625 264.36132812 C-116.47679687 263.97396484 -117.22703125 263.58660156 -118 263.1875 C-118.75023437 262.78080078 -119.50046875 262.37410156 -120.2734375 261.95507812 C-123.4743125 259.91365366 -123.4743125 259.91365366 -127 259 Z M-67.11352539 287.89331055 C-69.599956 288.42716038 -72.08932986 288.94746478 -74.58129883 289.45483398 C-78.21342819 290.19462879 -81.83517073 290.97337311 -85.45703125 291.76171875 C-86.5725386 291.98180099 -87.68804596 292.20188324 -88.83735657 292.42863464 C-90.38123299 292.77853203 -90.38123299 292.77853203 -91.95629883 293.13549805 C-93.31287346 293.42290108 -93.31287346 293.42290108 -94.69685364 293.71611023 C-98.97231566 296.09946808 -99.70790924 301.08744468 -101.12004089 305.49925232 C-101.46867691 306.72725052 -101.81731293 307.95524872 -102.17651367 309.22045898 C-102.37202316 309.90423111 -102.56753265 310.58800323 -102.76896667 311.29249573 C-103.40636455 313.52580317 -104.03721519 315.7609016 -104.66796875 317.99609375 C-105.11168073 319.55562174 -105.55580435 321.11503267 -106.00032043 322.67433167 C-107.16339613 326.75839478 -108.32090787 330.84401419 -109.47723389 334.92999268 C-110.6604764 339.10728512 -111.84902136 343.28306803 -113.03710938 347.45898438 C-115.36323958 355.63786198 -117.68348887 363.8183928 -120 372 C-115.48906583 375.63800597 -110.85645298 378.75949367 -105.9375 381.8125 C-105.13505859 382.32748047 -104.33261719 382.84246094 -103.50585938 383.37304688 C-102.72919922 383.85451172 -101.95253906 384.33597656 -101.15234375 384.83203125 C-100.45101318 385.27264893 -99.74968262 385.7132666 -99.02709961 386.16723633 C-96.54374259 387.18743756 -95.46413615 386.98232895 -93 386 C-91.25360881 384.39912284 -91.25360881 384.39912284 -89.6875 382.375 C-82.88905467 374.30904791 -74.62767787 364.79022275 -63.3984375 363.76171875 C-54.83578863 363.55152453 -48.80310083 364.78849263 -42.1875 370.375 C-37.40590322 376.11291614 -35.23143108 380.70863175 -34 388 C-32.67935547 388.36351562 -32.67935547 388.36351562 -31.33203125 388.734375 C-30.17058594 389.06953125 -29.00914062 389.4046875 -27.8125 389.75 C-26.66394531 390.07484375 -25.51539063 390.3996875 -24.33203125 390.734375 C-17.99153791 393.14272183 -15.13078091 396.80212771 -12.0703125 402.60546875 C-10.54294934 406.02252575 -9.73321167 409.33394165 -9 413 C-7.700625 413.20625 -6.40125 413.4125 -5.0625 413.625 C1.275699 415.07230528 6.65774919 417.8656011 10.60546875 423.1484375 C12.71847328 426.77958311 13.93984892 429.63307839 14.625 433.8125 C15.65185771 437.13910998 15.65185771 437.13910998 18.31640625 438.14453125 C20.26163528 438.80882035 22.2167265 439.44478578 24.1796875 440.0546875 C29.7339703 441.91637232 33.31871439 444.8460031 36.625 449.625 C42.1571934 457.46227399 52.09804242 466.27451114 61 470 C65.11304339 470.61695651 66.97026659 470.73165269 70.375 468.3125 C72.21921807 465.68803583 72.92169023 464.21070053 73 461 C71.0512582 457.15891086 68.72310704 454.57545097 65.5 451.75 C64.60925781 450.96882812 63.71851563 450.18765625 62.80078125 449.3828125 C59.21670619 446.33359941 55.58399702 443.35031301 51.92578125 440.390625 C48.70596269 437.75974521 45.53891244 435.07252081 42.375 432.375 C37.35854015 428.10433041 32.25376682 423.97765808 27 420 C29.15961033 416.04071439 31.77376404 412.86382584 34.79296875 409.55078125 C36.2047386 408.06448034 36.2047386 408.06448034 36 406 C41.54336043 410.02165364 46.80044825 414.31711974 52.00854492 418.7590332 C55.47393892 421.71336004 58.96656942 424.6268309 62.5 427.5 C67.2830419 431.38973849 71.99166592 435.36093382 76.67382812 439.37109375 C81.61737607 443.58566746 84.36109915 445.48786452 90.8359375 445.30859375 C93.18414748 445.11905446 93.18414748 445.11905446 95.5625 443.4375 C97.57214724 440.02983728 97.54678139 437.89581737 97 434 C94.43996668 430.33700448 91.55419099 427.63684882 88.0625 424.875 C87.09441406 424.09898437 86.12632812 423.32296875 85.12890625 422.5234375 C84.61859863 422.11448242 84.10829102 421.70552734 83.58251953 421.28417969 C80.85067925 419.06735156 78.17788144 416.78145309 75.5 414.5 C70.50976559 410.25859673 65.46918191 406.08482723 60.390625 401.94921875 C57.57561635 399.65397477 54.78407384 397.33260241 52 395 C53.81823178 390.904387 56.52454063 388.06529279 59.5390625 384.8046875 C61.20973274 383.12790227 61.20973274 383.12790227 61 381 C66.56307447 385.38264784 72.04295531 389.84989329 77.4375 394.4375 C83.23476185 399.36348241 89.08108362 404.22025595 95 409 C95.57991699 409.47566406 96.15983398 409.95132813 96.75732422 410.44140625 C98.62267391 411.97004493 100.49783947 413.48589955 102.375 415 C102.95822021 415.48146484 103.54144043 415.96292969 104.14233398 416.45898438 C107.35570128 419.02708417 109.83914088 420.73994631 114 421 C117.35706953 420.04083728 120.05575994 418.9675243 122 416 C122.65405701 411.6668723 122.44886803 409.67330205 120 406 C117.31030173 403.14547343 114.35341016 400.59336103 111.37109375 398.05078125 C108.5272481 395.59111244 105.7628331 393.04961023 103 390.5 C99.70008389 387.46072462 96.39049569 384.4384296 93 381.5 C89.0691075 378.0932265 85.24803427 374.56997215 81.421875 371.046875 C78.03308339 367.93192514 74.59784576 364.88236864 71.1171875 361.87109375 C68.94003738 359.9470072 66.80749462 357.97849849 64.67822266 356.00170898 C52.70793141 343.67523717 52.70793141 343.67523717 37.078125 339.13671875 C32.84273362 339.830239 29.39160439 341.60930798 25.75 343.8125 C25.08105713 344.20123291 24.41211426 344.58996582 23.72290039 344.99047852 C19.70429234 347.34005127 15.73435503 349.7690862 11.76171875 352.1953125 C10.43479004 353.00198364 10.43479004 353.00198364 9.08105469 353.82495117 C7.35357937 354.87869835 5.63129989 355.94102394 3.91503906 357.01293945 C-3.94793844 361.83405253 -11.16337507 364.37592451 -20.484375 362.5 C-27.93025536 360.5144319 -33.44506975 357.66246927 -37.8125 351.1875 C-41.93650171 343.94336542 -43.32025165 335.82067152 -41.46484375 327.640625 C-38.55563401 318.16582169 -33.31568898 312.62841637 -24.82571411 307.75085449 C-22.54856905 306.56971364 -20.25320214 305.43986551 -17.94140625 304.328125 C-16.69676857 303.71538727 -16.69676857 303.71538727 -15.42698669 303.090271 C-12.80925685 301.8023181 -10.18647666 300.52517202 -7.5625 299.25 C-4.91396054 297.95972903 -2.26673273 296.66704015 0.37696838 295.36688232 C2.01445712 294.56179747 3.65479977 293.76248634 5.29820251 292.96954346 C9.33272931 291.24865613 9.33272931 291.24865613 12 288 C-16.3548961 279.33171796 -38.41178789 281.66646046 -67.11352539 287.89331055 Z M-73.4375 389.5625 C-74.25154297 390.36236328 -75.06558594 391.16222656 -75.90429688 391.98632812 C-80.74792726 396.75473129 -80.74792726 396.75473129 -83.08203125 402.9453125 C-82.99949521 406.01879756 -82.81820694 407.54542063 -81 410 C-77.15691236 412.56205842 -75.5659696 412.67366765 -71 412 C-67.96409969 410.04115146 -65.53824581 407.55634382 -63 405 C-62.12214844 404.15824219 -61.24429688 403.31648438 -60.33984375 402.44921875 C-54.76238741 397.38139874 -54.76238741 397.38139874 -51 391 C-51.1442976 387.5368575 -51.65437503 385.52534996 -53.5625 382.625 C-56.32167323 380.78555118 -58.40211301 380.3374392 -61.71118164 380.41113281 C-66.70262568 381.69533153 -69.99259506 385.9426695 -73.4375 389.5625 Z M-46.359375 412.12890625 C-47.49479897 413.26826356 -48.62495894 414.41288908 -49.75 415.5625 C-50.32621094 416.13935547 -50.90242187 416.71621094 -51.49609375 417.31054688 C-56.3573002 422.04100049 -56.3573002 422.04100049 -58.4375 428.375 C-58.27801417 432.09585486 -58.27801417 432.09585486 -55.9375 434.9375 C-53.12600406 437.15820902 -53.12600406 437.15820902 -49.8125 437.875 C-43.71769083 436.47619134 -40.27087275 432.39400868 -36 428 C-35.14019531 427.12601562 -34.28039062 426.25203125 -33.39453125 425.3515625 C-28.05078286 420.01682555 -28.05078286 420.01682555 -26 413 C-27.28448682 409.36062066 -28.07874121 407.50669233 -31.5 405.625 C-38.07322316 403.98169421 -41.87696227 407.80843039 -46.359375 412.12890625 Z M-21 437 C-21.97069681 437.95122244 -22.94347287 438.90032622 -23.91796875 439.84765625 C-30.44748221 445.583626 -30.44748221 445.583626 -33.3125 453.375 C-33.30123484 456.97737455 -33.30123484 456.97737455 -31.375 459.375 C-28.39312393 461.415231 -26.62548925 462 -23 462 C-17.80604448 459.05107804 -13.84800613 455.11862876 -9.6875 450.875 C-9.05521484 450.24207031 -8.42292969 449.60914063 -7.77148438 448.95703125 C-3.23830439 444.58570148 -3.23830439 444.58570148 -1.6875 438.625 C-1.70740365 435.0345388 -1.70740365 435.0345388 -3.5625 432.625 C-11.42826081 427.38115946 -15.33035554 431.19326569 -21 437 Z M1 464 C0.22527344 464.70382812 -0.54945313 465.40765625 -1.34765625 466.1328125 C-5.66115405 470.12534222 -8.43612425 473.0229171 -9 479 C-7.74547952 482.24699418 -6.34292965 483.71268056 -3.6875 485.9375 C-1.03764922 487.23752208 -1.03764922 487.23752208 1.8125 486.625 C9.90714107 482.49832024 17.97983151 474.53025273 23 467 C23.56551375 462.63746537 23.49322651 460.70247412 20.9375 457.0625 C18.12600406 454.84179098 18.12600406 454.84179098 14.8125 454.125 C8.73614726 455.51957276 5.31229846 459.68097408 1 464 Z M38 475 C37.52949219 475.61488281 37.05898438 476.22976563 36.57421875 476.86328125 C35.64029297 478.07564453 35.64029297 478.07564453 34.6875 479.3125 C34.07261719 480.11300781 33.45773437 480.91351563 32.82421875 481.73828125 C31.30083693 483.62701374 29.75565593 485.33077636 28 487 C29.51058382 491.22963468 32.12314321 492.91246173 36 495 C39.89035463 495.46684256 42.7677285 495.30876536 46 493 C47.85577318 490.52563576 48.00372302 489.17498205 47.9375 486.0625 C46.32286839 480.78803674 42.28083444 478.16726983 38 475 Z " fill="#000000" transform="translate(224,0)"/>
</svg>
